<svg xmlns="http://www.w3.org/2000/svg" xmlns:xlink="http://www.w3.org/1999/xlink" width="500" zoomAndPan="magnify" viewBox="0 0 375 374.999991" height="500" preserveAspectRatio="xMidYMid meet" version="1.0"><defs><g/><clipPath id="id1"><path d="M 260 188.949219 L 269 188.949219 L 269 192 L 260 192 Z M 260 188.949219 " clip-rule="nonzero"/></clipPath><clipPath id="id2"><path d="M 256.148438 229 L 273.15625 229 L 273.15625 248.9375 L 256.148438 248.9375 Z M 256.148438 229 " clip-rule="nonzero"/></clipPath><clipPath id="id3"><path d="M 255.910156 209.355469 L 273.15625 209.355469 L 273.15625 228.664062 L 255.910156 228.664062 Z M 255.910156 209.355469 " clip-rule="nonzero"/></clipPath></defs><path fill="rgb(90.19928%, 0%, 1.179504%)" d="M 187.5 0 C 83.945312 0 0 83.945312 0 187.5 C 0 291.054688 83.945312 375 187.5 375 C 291.054688 375 375 291.054688 375 187.5 C 375 83.945312 291.054688 0 187.5 0 " fill-opacity="1" fill-rule="nonzero"/><g clip-path="url(#id1)"><path fill="rgb(9.408569%, 9.408569%, 9.408569%)" d="M 268.777344 190.527344 L 268.683594 190.101562 C 268.539062 189.441406 267.789062 188.964844 266.90625 188.964844 L 262.34375 188.964844 C 261.460938 188.964844 260.710938 189.441406 260.566406 190.101562 L 260.472656 190.527344 C 260.445312 190.652344 260.492188 190.777344 260.597656 190.871094 C 260.703125 190.964844 260.859375 191.019531 261.023438 191.019531 L 268.226562 191.019531 C 268.390625 191.019531 268.546875 190.964844 268.652344 190.871094 C 268.757812 190.777344 268.804688 190.652344 268.777344 190.527344 " fill-opacity="1" fill-rule="nonzero"/></g><g clip-path="url(#id2)"><path fill="rgb(9.408569%, 9.408569%, 9.408569%)" d="M 271.867188 236.347656 C 271.671875 234.574219 271.984375 232.730469 272.285156 230.949219 C 272.375 230.410156 272.464844 229.902344 272.535156 229.390625 C 272.554688 229.273438 272.570312 229.148438 272.589844 229.023438 L 256.570312 229.023438 C 256.582031 229.101562 256.59375 229.179688 256.605469 229.253906 C 256.683594 229.773438 256.777344 230.304688 256.871094 230.820312 C 257.199219 232.675781 257.539062 234.59375 257.273438 236.375 C 257.121094 237.386719 256.957031 238.351562 256.800781 239.28125 C 256.429688 241.460938 256.109375 243.34375 256.15625 244.714844 C 256.1875 245.566406 256.484375 246.363281 257.015625 247.027344 C 257.546875 247.6875 258.257812 248.148438 259.074219 248.359375 C 260.578125 248.742188 262.546875 248.9375 264.527344 248.9375 C 266.589844 248.9375 268.671875 248.726562 270.25 248.3125 C 271.875 247.886719 273.03125 246.460938 273.128906 244.761719 C 273.191406 243.746094 272.914062 242.34375 272.59375 240.71875 C 272.332031 239.402344 272.039062 237.910156 271.867188 236.347656 " fill-opacity="1" fill-rule="nonzero"/></g><g clip-path="url(#id3)"><path fill="rgb(9.408569%, 9.408569%, 9.408569%)" d="M 271.898438 209.386719 L 257.164062 209.386719 C 255.3125 216.539062 255.882812 224.078125 256.539062 228.605469 L 272.617188 228.605469 C 273.214844 224.152344 273.695312 216.742188 271.898438 209.386719 " fill-opacity="1" fill-rule="nonzero"/></g><path fill="rgb(9.408569%, 9.408569%, 9.408569%)" d="M 261.113281 194.671875 C 261.113281 194.679688 261.113281 194.6875 261.113281 194.695312 L 268.097656 194.695312 C 268.261719 194.605469 268.40625 194.5 268.519531 194.371094 C 268.800781 194.0625 268.875 193.683594 268.722656 193.332031 L 267.902344 191.414062 L 261.347656 191.414062 L 260.527344 193.332031 C 260.375 193.683594 260.449219 194.0625 260.726562 194.371094 C 260.832031 194.488281 260.964844 194.589844 261.113281 194.671875 " fill-opacity="1" fill-rule="nonzero"/><path fill="rgb(9.408569%, 9.408569%, 9.408569%)" d="M 270.402344 204.46875 C 270.34375 204.316406 270.277344 204.175781 270.207031 204.019531 C 269.84375 203.238281 268.078125 199.214844 268.085938 195.015625 L 261.113281 195.015625 C 261.121094 199.214844 259.355469 203.238281 258.992188 204.019531 C 258.953125 204.109375 258.914062 204.195312 258.878906 204.277344 C 258.851562 204.335938 258.828125 204.390625 258.804688 204.449219 C 258.148438 205.914062 257.628906 207.429688 257.21875 208.964844 L 271.847656 208.964844 C 271.46875 207.453125 270.996094 205.945312 270.402344 204.46875 " fill-opacity="1" fill-rule="nonzero"/><g fill="rgb(9.408569%, 9.408569%, 9.408569%)" fill-opacity="1"><g transform="translate(61.80973, 177.25003)"><g><path d="M 28.347656 0.761719 C 40.277344 0.761719 46.511719 -6.003906 48.488281 -9.652344 L 46.28125 -11.550781 C 42.332031 -7.144531 37.769531 -6.230469 34.578125 -6.230469 C 25.839844 -6.230469 16.339844 -13.222656 16.339844 -27.28125 C 16.339844 -38.605469 21.28125 -45.292969 27.132812 -45.292969 C 33.285156 -45.292969 34.957031 -40.125 34.957031 -35.035156 C 34.957031 -31.539062 37.316406 -28.269531 42.027344 -28.269531 C 47.117188 -28.269531 48.941406 -32.300781 48.941406 -35.566406 C 48.941406 -42.027344 42.558594 -48.410156 29.410156 -48.410156 C 15.199219 -48.410156 2.28125 -39.367188 2.28125 -23.558594 C 2.28125 -8.285156 14.589844 0.761719 28.347656 0.761719 Z M 28.347656 0.761719 "/></g></g></g><g fill="rgb(9.408569%, 9.408569%, 9.408569%)" fill-opacity="1"><g transform="translate(111.435108, 177.25003)"><g><path d="M 21.128906 0.457031 C 30.398438 0.457031 39.59375 -4.789062 39.59375 -17.023438 C 39.59375 -29.335938 30.324219 -34.957031 20.824219 -34.957031 C 11.550781 -34.957031 2.28125 -29.714844 2.28125 -17.480469 C 2.28125 -5.167969 11.628906 0.457031 21.128906 0.457031 Z M 22.265625 -3.039062 C 17.707031 -3.039062 14.515625 -11.246094 14.515625 -20.519531 C 14.515625 -27.664062 16.492188 -31.464844 19.683594 -31.464844 C 24.242188 -31.464844 27.433594 -23.332031 27.433594 -13.984375 C 27.433594 -6.839844 25.308594 -3.039062 22.265625 -3.039062 Z M 22.265625 -3.039062 "/></g></g></g><g fill="rgb(9.408569%, 9.408569%, 9.408569%)" fill-opacity="1"><g transform="translate(151.788964, 177.25003)"><g><path d="M 38.757812 -7.449219 L 28.726562 -22.417969 L 33.363281 -26.296875 C 36.628906 -29.105469 39.214844 -30.703125 43.242188 -30.929688 L 43.242188 -34.273438 L 24.851562 -34.273438 L 24.851562 -30.929688 C 28.878906 -30.703125 29.640625 -27.96875 27.96875 -26.597656 L 20.441406 -20.292969 C 19 -19.074219 17.328125 -19.988281 17.328125 -22.496094 L 17.328125 -46.585938 C 17.328125 -48.867188 16.113281 -50.007812 13.527344 -49.625 L 1.140625 -47.574219 L 1.140625 -44.15625 C 3.953125 -44.382812 5.929688 -43.851562 5.929688 -40.203125 L 5.929688 -8.4375 C 5.929688 -4.789062 4.636719 -3.570312 1.0625 -3.34375 L 1.0625 0 L 22.039062 0 L 22.039062 -3.34375 C 18.621094 -3.570312 17.328125 -4.789062 17.328125 -8.4375 L 17.328125 -10.03125 C 17.328125 -12.691406 17.707031 -12.996094 19.605469 -14.667969 C 20.59375 -15.503906 21.203125 -14.363281 22.265625 -12.769531 L 25.460938 -7.144531 C 26.296875 -5.851562 26.75 -3.570312 24.089844 -3.34375 L 24.089844 0 L 46.128906 0 L 46.128906 -3.34375 C 42.027344 -3.570312 40.203125 -5.320312 38.757812 -7.449219 Z M 38.757812 -7.449219 "/></g></g></g><g fill="rgb(9.408569%, 9.408569%, 9.408569%)" fill-opacity="1"><g transform="translate(196.398603, 177.25003)"><g><path d="M 26.371094 -5.546875 C 21.28125 -5.546875 17.480469 -8.285156 15.730469 -13.300781 C 15.503906 -14.667969 15.882812 -15.503906 16.949219 -15.65625 L 24.851562 -16.035156 C 31.691406 -16.414062 37.390625 -16.871094 37.390625 -23.789062 C 37.390625 -31.007812 30.246094 -34.957031 22.039062 -34.957031 C 12.3125 -34.957031 2.28125 -29.488281 2.28125 -17.023438 C 2.28125 -5.015625 11.703125 0.457031 21.203125 0.457031 C 30.171875 0.457031 35.1875 -4.332031 36.628906 -7.296875 L 34.351562 -9.347656 C 31.613281 -6.15625 28.953125 -5.546875 26.371094 -5.546875 Z M 20.976562 -31.3125 C 24.851562 -31.3125 27.132812 -27.585938 27.132812 -24.546875 C 27.132812 -21.050781 25.460938 -18.769531 19.457031 -18.847656 L 17.480469 -18.921875 C 15.425781 -18.921875 14.667969 -19.988281 14.515625 -21.582031 C 14.667969 -26.980469 16.339844 -31.3125 20.976562 -31.3125 Z M 20.976562 -31.3125 "/></g></g></g><g fill="rgb(9.408569%, 9.408569%, 9.408569%)" fill-opacity="1"><g transform="translate(47.664352, 248.70013)"><g><path d="M 32.925781 -11.957031 C 32.925781 -6.859375 29.300781 -3.625 23.8125 -3.625 C 18.324219 -3.625 10.679688 -6.957031 6.957031 -15.484375 L 2.449219 -15.484375 L 3.527344 0 L 8.035156 0 C 8.230469 -1.078125 9.308594 -2.84375 11.5625 -2.84375 C 15.289062 -2.84375 18.816406 1.46875 26.753906 1.46875 C 35.964844 1.46875 48.117188 -3.722656 48.117188 -17.050781 C 48.117188 -30.378906 35.769531 -35.375 28.613281 -38.804688 C 21.65625 -42.039062 17.640625 -45.175781 17.640625 -50.269531 C 17.640625 -54.289062 20.675781 -57.71875 26.066406 -57.71875 C 29.691406 -57.71875 35.179688 -56.25 39.492188 -46.941406 L 43.214844 -46.941406 L 42.332031 -61.640625 L 37.726562 -61.640625 C 37.53125 -60.5625 36.550781 -59.972656 35.375 -59.972656 C 32.925781 -59.972656 29.496094 -62.421875 22.734375 -62.421875 C 12.25 -62.421875 3.332031 -56.445312 3.332031 -45.46875 C 3.332031 -34.789062 11.957031 -29.59375 20.773438 -25.085938 C 30.476562 -20.1875 32.925781 -16.464844 32.925781 -11.957031 Z M 32.925781 -11.957031 "/></g></g></g><g fill="rgb(9.408569%, 9.408569%, 9.408569%)" fill-opacity="1"><g transform="translate(95.974278, 248.70013)"><g><path d="M 33.21875 -3.234375 L 33.21875 -7.546875 C 31.75 -6.273438 29.496094 -4.898438 27.242188 -4.898438 C 23.421875 -4.898438 22.636719 -8.722656 22.636719 -13.328125 L 22.636719 -44.585938 L 33.21875 -44.585938 L 33.21875 -49.09375 L 22.636719 -49.09375 L 22.636719 -62.421875 L 17.738281 -62.421875 C 15.386719 -52.820312 11.5625 -49.09375 1.960938 -49.09375 L 1.960938 -44.585938 L 7.25 -44.585938 L 7.25 -15.1875 C 7.25 -4.3125 12.835938 0.6875 21.753906 0.6875 C 27.242188 0.6875 30.964844 -1.078125 33.21875 -3.234375 Z M 33.21875 -3.234375 "/></g></g></g><g fill="rgb(9.408569%, 9.408569%, 9.408569%)" fill-opacity="1"><g transform="translate(129.879355, 248.70013)"><g><path d="M 54.09375 -12.054688 L 54.09375 -46.742188 C 54.09375 -48.703125 52.523438 -49.585938 51.152344 -49.488281 L 33.023438 -48.410156 L 33.023438 -44.488281 L 35.964844 -44.390625 C 37.925781 -44.292969 38.707031 -43.511719 38.707031 -41.453125 L 38.707031 -15.484375 C 37.53125 -11.855469 33.808594 -5.292969 28.417969 -5.292969 C 23.714844 -5.292969 22.539062 -10.191406 22.539062 -16.953125 L 22.539062 -46.742188 C 22.539062 -48.703125 21.070312 -49.585938 19.5 -49.488281 L 1.46875 -48.410156 L 1.46875 -44.488281 L 4.410156 -44.390625 C 6.371094 -44.292969 7.152344 -43.511719 7.152344 -41.453125 L 7.152344 -16.070312 C 7.152344 -2.058594 15.386719 1.566406 22.246094 1.566406 C 32.632812 1.566406 38.121094 -6.761719 39.492188 -10.289062 L 40.179688 -10.289062 L 39.296875 -1.371094 C 39.6875 -0.195312 40.570312 0.785156 42.039062 1.371094 C 47.039062 0.292969 53.703125 -0.980469 60.464844 -1.078125 L 60.464844 -5.195312 C 56.640625 -5.585938 54.09375 -7.351562 54.09375 -12.054688 Z M 54.09375 -12.054688 "/></g></g></g><g fill="rgb(9.408569%, 9.408569%, 9.408569%)" fill-opacity="1"><g transform="translate(189.556375, 248.70013)"><g><path d="M 52.722656 -12.054688 L 52.722656 -51.449219 C 52.722656 -57.71875 52.722656 -61.441406 53.308594 -66.148438 C 52.722656 -67.421875 51.742188 -68.402344 50.46875 -68.988281 C 44.6875 -65.65625 37.726562 -63.597656 31.359375 -62.421875 L 31.359375 -58.503906 C 35.277344 -59.1875 37.335938 -58.109375 37.335938 -53.898438 L 37.335938 -44.585938 C 35.964844 -45.960938 32.730469 -49.976562 25.28125 -49.976562 C 15.089844 -49.976562 2.941406 -41.941406 2.941406 -24.695312 C 2.941406 -6.566406 15.679688 1.078125 25.578125 1.078125 C 32.632812 1.078125 36.355469 -2.742188 37.824219 -5.976562 L 38.511719 -5.976562 L 37.824219 -1.371094 C 38.316406 -0.195312 39.101562 0.785156 40.765625 1.371094 C 45.566406 0.292969 52.328125 -0.980469 59.089844 -1.078125 L 59.089844 -5.195312 C 55.269531 -5.585938 52.722656 -7.351562 52.722656 -12.054688 Z M 37.335938 -12.835938 C 36.847656 -8.917969 33.808594 -3.234375 29.496094 -3.234375 C 23.910156 -3.234375 19.011719 -13.132812 19.011719 -27.734375 C 19.011719 -38.023438 22.050781 -45.664062 28.027344 -45.664062 C 32.535156 -45.664062 36.0625 -41.453125 37.335938 -39.785156 Z M 37.335938 -12.835938 "/></g></g></g><g fill="rgb(9.408569%, 9.408569%, 9.408569%)" fill-opacity="1"><g transform="translate(278.240026, 248.70013)"><g><path d="M 27.734375 -49.976562 C 16.757812 -49.976562 2.941406 -42.332031 2.941406 -24.597656 C 2.941406 -7.351562 16.757812 1.078125 27.632812 1.078125 C 38.609375 1.078125 52.425781 -6.566406 52.425781 -24.304688 C 52.425781 -41.550781 38.609375 -49.976562 27.734375 -49.976562 Z M 29.300781 -3.234375 C 23.324219 -3.234375 19.011719 -14.109375 19.011719 -29.59375 C 19.011719 -39.101562 21.265625 -45.664062 26.066406 -45.664062 C 32.042969 -45.664062 36.355469 -34.886719 36.355469 -19.402344 C 36.355469 -9.800781 34.101562 -3.234375 29.300781 -3.234375 Z M 29.300781 -3.234375 "/></g></g></g><g fill="rgb(9.408569%, 9.408569%, 9.408569%)" fill-opacity="1"><g transform="translate(174.813905, 132.075291)"><g><path d="M 4.007812 -7.105469 C 3.960938 -11.566406 5.425781 -15.550781 7.488281 -17.878906 C 7.65625 -18.046875 7.511719 -18.191406 7.199219 -18.191406 L 6.574219 -18.191406 C 6.382812 -18.191406 6.265625 -18.144531 6.121094 -18.023438 C 2.785156 -15.574219 1.078125 -11.59375 1.078125 -7.105469 C 1.078125 -2.617188 2.785156 1.367188 6.121094 3.816406 C 6.265625 3.9375 6.382812 3.984375 6.574219 3.984375 L 7.246094 3.984375 C 7.535156 3.984375 7.585938 3.816406 7.367188 3.550781 C 5.375 1.222656 3.960938 -2.710938 4.007812 -7.105469 Z M 4.007812 -7.105469 "/></g></g></g><g fill="rgb(9.408569%, 9.408569%, 9.408569%)" fill-opacity="1"><g transform="translate(182.97392, 132.075291)"><g><path d="M 0.71875 0 C 1.753906 -0.121094 2.710938 -0.191406 3.71875 -0.191406 C 5.015625 -0.191406 6.863281 -0.046875 7.847656 -0.046875 C 10.800781 -0.046875 15.742188 -1.320312 15.742188 -7.585938 C 15.742188 -12.816406 12.433594 -14.902344 7.34375 -14.902344 L 0.71875 -14.902344 L 0.71875 -14.113281 C 1.800781 -13.96875 2.375 -13.585938 2.375 -12.671875 L 2.375 -2.230469 C 2.375 -1.320312 1.800781 -0.9375 0.71875 -0.792969 Z M 7.390625 -1.007812 C 6.550781 -1.007812 5.640625 -1.199219 5.640625 -2.230469 L 5.640625 -12.671875 C 5.640625 -13.585938 6.121094 -13.945312 7.152344 -13.945312 L 7.488281 -13.945312 C 10.464844 -13.945312 12.191406 -11.617188 12.191406 -7.585938 C 12.191406 -3.9375 10.800781 -1.007812 7.390625 -1.007812 Z M 7.390625 -1.007812 "/></g></g></g><g fill="rgb(9.408569%, 9.408569%, 9.408569%)" fill-opacity="1"><g transform="translate(199.677955, 132.075291)"><g><path d="M 3.3125 -12.671875 C 4.222656 -12.671875 4.992188 -13.414062 4.992188 -14.351562 C 4.992188 -15.3125 4.222656 -16.054688 3.3125 -16.054688 C 2.375 -16.054688 1.609375 -15.3125 1.609375 -14.351562 C 1.609375 -13.414062 2.375 -12.671875 3.3125 -12.671875 Z M 0.601562 0 L 6.527344 0 L 6.527344 -0.816406 C 5.425781 -0.910156 5.015625 -1.246094 5.015625 -2.28125 L 5.015625 -10.152344 C 5.015625 -10.800781 4.65625 -11.113281 3.960938 -10.992188 L 0.601562 -10.367188 L 0.601562 -9.550781 C 1.679688 -9.648438 2.136719 -9.359375 2.136719 -8.257812 L 2.136719 -2.28125 C 2.136719 -1.246094 1.726562 -0.910156 0.601562 -0.816406 Z M 0.601562 0 "/></g></g></g><g fill="rgb(9.408569%, 9.408569%, 9.408569%)" fill-opacity="1"><g transform="translate(206.805965, 132.075291)"><g><path d="M 7.894531 -1.511719 C 6.121094 -1.511719 4.726562 -2.496094 4.128906 -4.222656 C 3.984375 -4.777344 4.078125 -5.136719 4.511719 -5.160156 L 7.152344 -5.257812 C 9.695312 -5.351562 11.28125 -5.617188 11.28125 -7.511719 C 11.28125 -9.648438 9.265625 -11.039062 6.695312 -11.039062 C 3.695312 -11.039062 0.71875 -9.167969 0.71875 -5.398438 C 0.71875 -1.753906 3.503906 0.144531 6.503906 0.144531 C 9.167969 0.144531 10.703125 -1.367188 11.160156 -2.257812 L 10.585938 -2.761719 C 9.742188 -1.753906 8.808594 -1.511719 7.894531 -1.511719 Z M 6.335938 -10.128906 C 7.777344 -10.128906 8.59375 -8.976562 8.59375 -7.753906 C 8.59375 -6.648438 7.96875 -6 5.902344 -6 L 4.632812 -6 C 4.007812 -6 3.769531 -6.289062 3.792969 -7.007812 C 3.910156 -8.832031 4.703125 -10.128906 6.335938 -10.128906 Z M 6.335938 -10.128906 "/></g></g></g><g fill="rgb(9.408569%, 9.408569%, 9.408569%)" fill-opacity="1"><g transform="translate(218.925989, 132.075291)"><g><path d="M 5.28125 0.121094 C 6.574219 0.121094 7.320312 -0.3125 7.726562 -0.671875 L 7.320312 -1.414062 C 6.984375 -1.152344 6.527344 -1.03125 6.070312 -1.03125 C 5.089844 -1.03125 4.871094 -1.945312 4.871094 -3.023438 L 4.871094 -9.191406 C 4.871094 -9.695312 5.089844 -9.839844 5.519531 -9.839844 L 7.632812 -9.839844 L 7.632812 -10.824219 L 5.519531 -10.824219 C 5.089844 -10.824219 4.871094 -10.96875 4.871094 -11.472656 L 4.871094 -13.414062 L 3.742188 -13.414062 C 3.335938 -11.710938 2.449219 -10.824219 0.359375 -10.535156 L 0.359375 -9.839844 L 1.34375 -9.839844 C 1.800781 -9.839844 1.992188 -9.695312 1.992188 -9.191406 L 1.992188 -3.550781 C 1.992188 -0.984375 3.121094 0.121094 5.28125 0.121094 Z M 5.28125 0.121094 "/></g></g></g><g fill="rgb(9.408569%, 9.408569%, 9.408569%)" fill-opacity="1"><g transform="translate(227.134001, 132.075291)"><g><path d="M 4.152344 -7.105469 C 4.199219 -2.710938 2.785156 1.222656 0.792969 3.550781 C 0.574219 3.816406 0.625 3.984375 0.910156 3.984375 L 1.585938 3.984375 C 1.777344 3.984375 1.894531 3.9375 2.039062 3.816406 C 5.375 1.367188 7.078125 -2.617188 7.078125 -7.105469 C 7.078125 -11.59375 5.375 -15.574219 2.039062 -18.023438 C 1.894531 -18.144531 1.777344 -18.191406 1.585938 -18.191406 L 0.960938 -18.191406 C 0.648438 -18.191406 0.503906 -18.046875 0.671875 -17.878906 C 2.734375 -15.550781 4.199219 -11.566406 4.152344 -7.105469 Z M 4.152344 -7.105469 "/></g></g></g></svg>