<svg xmlns="http://www.w3.org/2000/svg" viewBox="0 0 500 500"><g id="freepik--background-complete--inject-54"><path d="M412.41,58.12l13.12-.28,6.66-.11c2.23,0,4.47,0,6.7-.06h.44v.45l.06,11.19v.5h-.5l-13.24-.06c-4.42,0-8.83-.12-13.24-.17h-.28v-.27c0-1.9.09-3.79.13-5.65Zm0,0,.14,5.65c0,1.87.11,3.71.13,5.54l-.27-.27c4.41-.05,8.82-.16,13.24-.17l13.24-.06-.5.5.05-11.19.45.45c-2.18,0-4.36,0-6.55-.06l-6.58-.11Z" style="fill:#ebebeb"></path><path d="M427.18,44l13.12-.28,6.66-.11c2.23,0,4.47,0,6.7-.06h.44V44l.06,11.19v.5h-.5l-13.24-.06c-4.41,0-8.83-.12-13.24-.17h-.28V55.2c0-1.9.08-3.79.13-5.65Zm0,0,.14,5.65c.05,1.87.11,3.71.13,5.54l-.27-.27c4.41,0,8.83-.16,13.24-.17l13.24-.06-.5.5,0-11.19.45.45c-2.18,0-4.36,0-6.55-.06l-6.58-.11Z" style="fill:#ebebeb"></path><path d="M46.34,44l13.13-.28,6.66-.11c2.22,0,4.46,0,6.69-.06h.45V44l0,11.19v.5h-.5l-13.24-.06c-4.41,0-8.83-.12-13.24-.17h-.27V55.2c0-1.9.08-3.79.13-5.65Zm0,0,.14,5.65c.05,1.87.12,3.71.13,5.54l-.27-.27c4.41,0,8.83-.16,13.24-.17l13.24-.06-.5.5L72.38,44l.44.45c-2.18,0-4.36,0-6.54-.06l-6.58-.11Z" style="fill:#ebebeb"></path><path d="M61.11,342.48l13.13-.28,6.66-.12c2.22,0,4.46,0,6.69-.05H88v.45l0,11.19v.5h-.51l-13.24-.06c-4.41,0-8.82-.11-13.24-.16h-.27v-.26c0-1.9.09-3.79.13-5.66Zm0,0,.14,5.65c0,1.86.12,3.7.14,5.54l-.28-.28c4.42-.05,8.83-.16,13.24-.16l13.24-.06-.5.5.06-11.19.44.44c-2.18,0-4.35,0-6.54-.05l-6.58-.12Z" style="fill:#ebebeb"></path><path d="M311.51,201.39l13.12-.28,6.66-.11c2.23-.05,4.47,0,6.7-.05h.44v.45l.06,11.19v.5H338L324.75,213c-4.41,0-8.83-.11-13.24-.17h-.28v-.27c0-1.9.08-3.78.13-5.65Zm0,0,.14,5.66c.05,1.86.11,3.7.13,5.53l-.27-.27c4.41-.05,8.83-.16,13.24-.16l13.24-.07-.5.5.05-11.19.45.45c-2.18,0-4.36,0-6.55-.06l-6.58-.11Z" style="fill:#ebebeb"></path><path d="M46.34,328.37l13.13-.28,6.66-.11c2.22-.05,4.46,0,6.69-.06h.45v.45l0,11.19v.5h-.5L59.58,340c-4.41,0-8.83-.11-13.24-.16h-.27v-.27c0-1.9.08-3.79.13-5.66Zm0,0,.14,5.65c.05,1.86.12,3.7.13,5.54l-.27-.28c4.41,0,8.83-.16,13.24-.16l13.24-.06-.5.5.06-11.19.44.44c-2.18,0-4.36,0-6.54-.05l-6.58-.12Z" style="fill:#ebebeb"></path><path d="M412.41,342.48l13.12-.28,6.66-.12c2.23,0,4.47,0,6.7-.05h.44v.45l.06,11.19v.5h-.5l-13.24-.06c-4.42,0-8.83-.11-13.24-.16h-.28v-.26c0-1.9.09-3.79.13-5.66Zm0,0,.14,5.65c0,1.86.11,3.7.13,5.54l-.27-.28c4.41-.05,8.82-.16,13.24-.16l13.24-.06-.5.5.05-11.19.45.44c-2.18,0-4.36,0-6.55-.05l-6.58-.12Z" style="fill:#ebebeb"></path><rect x="81.65" y="54.27" width="49.11" height="49.11" style="fill:#fff"></rect><path d="M79.1,51.71v54.22h54.21V51.71Zm51.66,51.66H81.65V54.27h49.11Z" style="fill:#dbdbdb"></path><rect x="99.6" y="66.24" width="16.98" height="38.28" transform="translate(193.46 -22.71) rotate(90)" style="fill:#ebebeb"></rect><rect x="96.4" y="69.01" width="19.61" height="19.61" transform="translate(185.03 -27.39) rotate(90)" style="fill:#c7c7c7"></rect><rect x="133.32" y="51.71" width="2.09" height="54.22" style="fill:#c7c7c7"></rect><rect x="81.65" y="124" width="49.11" height="49.11" style="fill:#fff"></rect><rect x="90.09" y="131.86" width="12.82" height="37.04" style="fill:#c7c7c7"></rect><path d="M79.1,121.44v54.22h54.21V121.44Zm51.66,51.67H81.65V124h49.11Z" style="fill:#dbdbdb"></path><rect x="96.4" y="138.75" width="19.61" height="19.61" style="fill:#ebebeb"></rect><rect x="133.32" y="121.44" width="2.09" height="54.22" style="fill:#c7c7c7"></rect><rect x="81.65" y="193.73" width="49.11" height="49.11" style="fill:#fff"></rect><rect x="87.1" y="200.42" width="26.95" height="16.11" style="fill:#ebebeb"></rect><path d="M79.1,191.17v54.22h54.21V191.17Zm51.66,51.67H81.65V193.73h49.11Z" style="fill:#dbdbdb"></path><rect x="96.4" y="208.48" width="19.61" height="19.61" style="fill:#c7c7c7"></rect><rect x="133.32" y="191.17" width="2.09" height="54.22" style="fill:#c7c7c7"></rect><rect x="326.39" y="51.71" width="125.93" height="193.1" style="fill:#ebebeb"></rect><rect x="333.26" y="59.44" width="53.18" height="85.89" style="fill:#fff"></rect><rect x="392.29" y="59.44" width="53.18" height="85.89" style="fill:#fff"></rect><rect x="333.26" y="151.18" width="53.18" height="85.89" style="fill:#fff"></rect><rect x="392.29" y="151.18" width="53.18" height="85.89" style="fill:#fff"></rect><rect x="326.39" y="51.71" width="29.83" height="276.26" style="fill:#dbdbdb"></rect><polygon points="350.57 64.84 350.8 94.71 350.88 124.58 351.04 184.32 350.88 244.06 350.8 273.94 350.57 303.81 350.33 273.94 350.25 244.06 350.09 184.32 350.25 124.58 350.34 94.71 350.57 64.84" style="fill:#ebebeb"></polygon><polygon points="336.87 71.77 337.1 98.44 337.23 125.11 337.34 178.46 337.23 231.8 337.1 258.47 336.87 285.14 336.64 258.47 336.51 231.8 336.4 178.46 336.51 125.11 336.64 98.44 336.87 71.77" style="fill:#ebebeb"></polygon><polygon points="343.72 78.07 343.95 109.3 344.03 140.53 344.19 202.99 344.03 265.45 343.95 296.68 343.72 327.91 343.49 296.68 343.4 265.45 343.25 202.99 343.4 140.53 343.49 109.3 343.72 78.07" style="fill:#ebebeb"></polygon><polygon points="331.78 66.42 332.01 99.11 332.09 131.79 332.25 197.16 332.09 262.54 332.01 295.22 331.78 327.91 331.55 295.22 331.46 262.54 331.3 197.16 331.46 131.79 331.55 99.11 331.78 66.42" style="fill:#ebebeb"></polygon><rect x="422.5" y="51.71" width="29.83" height="276.26" transform="translate(874.83 379.68) rotate(180)" style="fill:#dbdbdb"></rect><polygon points="428.16 64.84 428.39 94.71 428.47 124.58 428.63 184.32 428.47 244.06 428.39 273.94 428.16 303.81 427.92 273.94 427.84 244.06 427.68 184.32 427.84 124.58 427.93 94.71 428.16 64.84" style="fill:#ebebeb"></polygon><polygon points="441.85 71.77 442.08 98.44 442.21 125.11 442.32 178.46 442.22 231.8 442.08 258.47 441.85 285.14 441.62 258.47 441.49 231.8 441.38 178.46 441.49 125.11 441.62 98.44 441.85 71.77" style="fill:#ebebeb"></polygon><polygon points="435 78.07 435.23 109.3 435.32 140.53 435.48 202.99 435.32 265.45 435.24 296.68 435 327.91 434.77 296.68 434.69 265.45 434.53 202.99 434.69 140.53 434.77 109.3 435 78.07" style="fill:#ebebeb"></polygon><polygon points="446.95 66.42 447.18 99.11 447.26 131.79 447.42 197.16 447.26 262.54 447.18 295.22 446.95 327.91 446.71 295.22 446.63 262.54 446.47 197.16 446.63 131.79 446.72 99.11 446.95 66.42" style="fill:#ebebeb"></polygon><path d="M196.3,214a3.69,3.69,0,1,1-2.94-4.32A3.7,3.7,0,0,1,196.3,214Z" style="fill:#dbdbdb"></path><rect x="195.25" y="195.29" width="2.82" height="18.57" transform="translate(41.68 -33.13) rotate(10.77)" style="fill:#dbdbdb"></rect><path d="M209.05,211a3.69,3.69,0,1,1-2.94-4.32A3.7,3.7,0,0,1,209.05,211Z" style="fill:#dbdbdb"></path><rect x="208" y="192.24" width="2.82" height="18.57" transform="translate(41.33 -35.57) rotate(10.77)" style="fill:#dbdbdb"></rect><polygon points="212.53 192.71 196.54 197.63 197.01 195.19 212.99 190.27 212.53 192.71" style="fill:#dbdbdb"></polygon><polygon points="211.65 197.31 195.67 202.23 196.13 199.79 212.12 194.87 211.65 197.31" style="fill:#dbdbdb"></polygon><path d="M275.09,83.1a3.69,3.69,0,1,1-2.94-4.32A3.7,3.7,0,0,1,275.09,83.1Z" style="fill:#ebebeb"></path><rect x="274.04" y="64.38" width="2.82" height="18.57" transform="translate(18.61 -50.16) rotate(10.77)" style="fill:#ebebeb"></rect><path d="M287.84,80.05a3.69,3.69,0,1,1-2.94-4.32A3.69,3.69,0,0,1,287.84,80.05Z" style="fill:#ebebeb"></path><rect x="286.79" y="61.34" width="2.82" height="18.57" transform="translate(18.27 -52.6) rotate(10.77)" style="fill:#ebebeb"></rect><polygon points="291.32 61.8 275.33 66.72 275.8 64.28 291.78 59.36 291.32 61.8" style="fill:#ebebeb"></polygon><polygon points="290.44 66.4 274.46 71.32 274.92 68.88 290.91 63.96 290.44 66.4" style="fill:#ebebeb"></polygon><path d="M167.36,142.89a3.69,3.69,0,1,1-2.94-4.32A3.69,3.69,0,0,1,167.36,142.89Z" style="fill:#ebebeb"></path><rect x="166.31" y="124.18" width="2.82" height="18.57" transform="translate(27.88 -28.98) rotate(10.77)" style="fill:#ebebeb"></rect><rect x="177.85" y="121.38" width="2.82" height="5.37" transform="translate(26.33 -31.3) rotate(10.77)" style="fill:#ebebeb"></rect><polygon points="181.02 122.4 167.61 126.52 168.07 124.08 181.48 119.96 181.02 122.4" style="fill:#ebebeb"></polygon><polygon points="180.15 127 166.73 131.11 167.19 128.67 180.61 124.56 180.15 127" style="fill:#ebebeb"></polygon><path d="M299.09,115.89a3.69,3.69,0,1,1-2.94-4.32A3.68,3.68,0,0,1,299.09,115.89Z" style="fill:#dbdbdb"></path><rect x="298.04" y="97.18" width="2.82" height="18.57" transform="translate(25.16 -54.07) rotate(10.77)" style="fill:#dbdbdb"></rect><rect x="309.58" y="94.39" width="2.82" height="5.37" transform="translate(23.61 -56.4) rotate(10.77)" style="fill:#dbdbdb"></rect><polygon points="312.75 95.4 299.34 99.52 299.8 97.08 313.21 92.96 312.75 95.4" style="fill:#dbdbdb"></polygon><polygon points="311.88 100 298.46 104.12 298.93 101.68 312.34 97.56 311.88 100" style="fill:#dbdbdb"></polygon></g><g id="freepik--Shadow--inject-54"><ellipse cx="250" cy="449.32" rx="127.98" ry="17.92" style="fill:#ebebeb"></ellipse></g><g id="freepik--Plant--inject-54"><path d="M440.91,283.05c-3.8-3.72-8.71-8.22-14.51-6.61-5.47,1.51-7.56,7.47-8.54,12.44-1.26,6.4-2.24,12.87-3.25,19.32s-2,13-2.93,19.55q-.8,5.52-1.57,11.05c-.26,1.84-.51,3.68-.77,5.52s-.55,3.61-.65,5.44c0,.58.88.66,1,.11.7-3.07,1-6.27,1.44-9.39s.91-6.27,1.37-9.4q1.37-9.34,2.79-18.68t2.9-18.67c.85-5.27,1.24-11.82,5.92-15.3a9,9,0,0,1,8.74-.82c3.08,1.17,5.54,3.38,7.94,5.56C440.88,283.24,441,283.12,440.91,283.05Z" style="fill:#263238"></path><path d="M435.71,279.25s-7.76-2.8-11.59,2.87.75,20.08,36.1,28.21a99.9,99.9,0,0,0-8.51-32C444.13,261.85,430.63,268.1,435.71,279.25Z" style="fill:#E60003"></path><path d="M458.19,308a30.41,30.41,0,0,0-1.78-2.87c-.59-.91-1.19-1.81-1.79-2.72-.46-.68-.92-1.35-1.39-2a4.18,4.18,0,0,0,.07-.51l.12-.91c.08-.67.18-1.33.28-2s.21-1.32.33-2a10.3,10.3,0,0,1,.47-2.08c0-.11-.15-.16-.16,0A7.75,7.75,0,0,1,454,294c-.09.3-.16.6-.24.9-.17.67-.34,1.34-.49,2s-.25,1.24-.36,1.87c-.05.3-.1.61-.14.91-.63-.9-1.27-1.79-1.93-2.66-1.88-2.48-3.87-4.86-5.92-7.18,0,0,0,0,0-.06.18-3.72.09-7.39.92-11.05,0-.1-.13-.15-.15,0a38.16,38.16,0,0,0-1.32,10.57c-.74-.83-1.48-1.64-2.24-2.45q-2.58-2.79-5.26-5.46a.08.08,0,0,0-.12.11c3,3.2,5.81,6.54,8.56,9.94a63.3,63.3,0,0,0-6.46.24c-2.4.18-4.78.49-7.16.82-.1,0-.07.17,0,.15a68.54,68.54,0,0,1,7.15-.64c2.31-.09,4.6,0,6.9,0,1.49,1.85,3,3.71,4.42,5.58h-.33c-.54,0-1.09,0-1.63,0-1.07,0-2.15.09-3.22.18a49.56,49.56,0,0,0-6.52,1,.08.08,0,1,0,0,.16c2.17-.25,4.34-.45,6.53-.53,1,0,2.08,0,3.13,0h1.62a2.15,2.15,0,0,0,.89-.08q1.44,1.85,2.85,3.71c.75,1,1.49,2,2.22,3s1.41,2.15,2.24,3.11A.08.08,0,0,0,458.19,308Z" style="fill:#263238"></path><path d="M439.09,287.28a25.07,25.07,0,0,0-3.78-.19c-1.26,0-2.52,0-3.78.09a.08.08,0,1,0,0,.15c1.28-.09,2.56-.11,3.84-.09s2.47.13,3.71.1C439.13,287.34,439.14,287.28,439.09,287.28Z" style="fill:#263238"></path><path d="M450.19,290.13c.15-1.21.3-2.42.55-3.61a.08.08,0,1,0-.15,0c-.18,1.18-.41,2.36-.59,3.55-.09.6-.17,1.19-.24,1.79a8.78,8.78,0,0,0-.15,1.69c0,.1.18.11.21,0a9.39,9.39,0,0,0,.18-1.68C450.06,291.27,450.12,290.7,450.19,290.13Z" style="fill:#263238"></path><path d="M447.87,276.75c-.31,1.17-.62,2.36-.84,3.56-.11.61-.2,1.22-.28,1.83a7.12,7.12,0,0,0-.12,1.78c0,.05.08.05.09,0a9.73,9.73,0,0,0,.28-1.7c.08-.59.17-1.18.27-1.76.21-1.23.43-2.45.75-3.67C448,276.71,447.89,276.65,447.87,276.75Z" style="fill:#263238"></path><path d="M401.83,348.45q-.29-3.34-.65-6.67c-.46-4.41-1-8.8-1.59-13.19s-1.15-8.76-1.85-13.12a33.62,33.62,0,0,0-1.35-6,5.68,5.68,0,0,0-3.3-3.72c-4.16-1.44-7,2.88-8.65,5.93-.05.09.09.16.14.08,1-1.45,3.79-5.51,6.94-5.32,2.13.13,3.83,1.63,4.85,6.93,2.53,13.19,4.82,40,5.09,41.71.14.93.8.89.8-.11C402.28,352.82,402,350.63,401.83,348.45Z" style="fill:#263238"></path><path d="M385.57,310.08s3.63-12.84-4.41-6.42c-13.37,10.69-13.85,33.93-13.85,33.93s23.78-13.82,26.74-22.93C398.46,301.09,385.57,310.08,385.57,310.08Z" style="fill:#E60003"></path><path d="M390.07,316.38c-1.87.38-3.76.63-5.65.9l-2.67.37c-.6.09-1.21.14-1.82.22,1.77-2.44,3.56-4.87,5.25-7.36.07-.1-.08-.2-.15-.12a54.55,54.55,0,0,0-4,4.59L380,312a36.19,36.19,0,0,1-1.13-3.48c0-.1-.18,0-.16.05.33,1.17.56,2.37.87,3.55s.65,2.27,1.06,3.38c-.88,1.13-1.71,2.28-2.52,3.46-.41-1.16-.92-2.29-1.28-3.47a.08.08,0,0,0-.15.05c.43,1.3.65,2.66,1.06,4-.55.8-1.1,1.59-1.62,2.4-1,1.48-1.86,3-2.75,4.52a.34.34,0,0,0-.21.35c-1.5,2.6-2.93,5.24-4.34,7.9a.08.08,0,0,0,.14.08c1.41-2.63,3-5.19,4.62-7.7h0a3.27,3.27,0,0,1,.78-.15l.82-.18c.62-.14,1.23-.3,1.84-.45,1.2-.3,2.4-.58,3.62-.79.1,0,.06-.17,0-.15-1.44.27-2.89.43-4.34.6-.69.08-1.37.17-2.06.28h-.1q1.29-2,2.6-3.86c.87-1.26,1.76-2.49,2.65-3.73.82-.11,1.64-.33,2.46-.49l2.76-.53c1.84-.37,3.67-.78,5.52-1.09C390.21,316.52,390.17,316.36,390.07,316.38Z" style="fill:#263238"></path><path d="M375.78,317.65c-.12-.34-.22-.69-.33-1a21.8,21.8,0,0,1-.54-2.15c0-.1-.18-.05-.15,0,.15.72.32,1.45.49,2.17a13,13,0,0,0,.62,2.13.14.14,0,0,0,.27-.08C376,318.37,375.89,318,375.78,317.65Z" style="fill:#263238"></path><path d="M392.5,313.41c-1.08.16-2.18.24-3.27.33s-2.18.25-3.27.41c-.06,0-.06.1,0,.1,1.1-.08,2.19-.16,3.28-.3s2.17-.31,3.26-.38C392.61,313.56,392.6,313.39,392.5,313.41Z" style="fill:#263238"></path><path d="M419.33,332.2c-.42-9.45-1-18.89-2-28.3-.47-4.69-1-9.38-1.66-14A101.17,101.17,0,0,0,413,276.27a26.09,26.09,0,0,0-4.52-9.58,10.28,10.28,0,0,0-9.14-4c-4.14.51-7.47,3.12-10.35,5.95-3.23,3.18-6.19,6.64-9.19,10l-2.25,2.6c-.07.07,0,.18.12.11q4.38-5.06,9.15-9.76c2.94-2.88,6-6,10-7.23a10.33,10.33,0,0,1,5.83-.14,9.3,9.3,0,0,1,4,2.53,20.79,20.79,0,0,1,4.49,8.74c2.55,8.69,3.46,17.8,4.4,26.77s1.61,18.25,2.07,27.4.82,18.42,1.7,27.59c.11,1.14.26,2.26.4,3.39.1.76,1.28.76,1.21,0C420.19,351.18,419.76,341.7,419.33,332.2Z" style="fill:#263238"></path><path d="M388.46,269.67s5.4-10-1-13.19-27.72,20.62-34,55.46c0,0,34.48-15.25,46.18-30.45S398.14,262.94,388.46,269.67Z" style="fill:#E60003"></path><path d="M393.53,277.8c-3.88,0-7.74-.3-11.62-.27.73-.83,1.45-1.67,2.19-2.49a38.81,38.81,0,0,0,3-3.52c.05-.08-.07-.2-.14-.13a27.2,27.2,0,0,0-2.94,2.94c-1,1-1.93,2.06-2.89,3.1-1.48,1.6-2.94,3.23-4.38,4.86,0-.16,0-.31,0-.47,0-.67,0-1.35,0-2,0-1.32,0-2.63.05-3.94,0-2.67,0-5.35.2-8,0-.11-.15-.1-.16,0-.19,2.67-.46,5.33-.59,8-.07,1.31-.1,2.63-.11,3.94,0,.68,0,1.36,0,2,0,.37,0,.76,0,1.14l-.69.76c-3.09,3.53-6,7.19-8.89,10.91,0-.21,0-.42-.05-.62,0-.41-.09-.82-.14-1.23-.1-.89-.22-1.77-.35-2.66s-.26-1.66-.4-2.49-.38-1.87-.45-2.81a.08.08,0,1,0-.16,0,22.43,22.43,0,0,1,.32,2.84l.24,2.56c.08.85.15,1.7.24,2.56,0,.4.08.82.13,1.22,0,.21,0,.41.07.62a1.23,1.23,0,0,0,.17.49l-1.48,1.92c-2,2.59-3.87,5.21-5.79,7.82-.06.08.05.19.12.11,1.81-2.37,3.68-4.7,5.58-7,1.42.06,2.86,0,4.28-.06s3,0,4.49,0c.1,0,.1-.16,0-.16-1.49,0-3,0-4.48,0s-2.75-.06-4.12,0c1.67-2,3.35-4,5-6.05.62-.73,1.24-1.46,1.85-2.2a8.35,8.35,0,0,0,1.73.06h2c1.28,0,2.55,0,3.82-.05,2.63,0,5.27-.13,7.9-.14.1,0,.1-.16,0-.16-2.63,0-5.26-.14-7.9-.21l-3.82-.09-2,0c-.39,0-.79,0-1.18,0,1.45-1.72,2.89-3.44,4.34-5.15a.14.14,0,0,0,.08-.09c1.42-1.67,2.83-3.34,4.26-5l.59-.67c4,.12,8-.14,12-.06A.08.08,0,0,0,393.53,277.8Z" style="fill:#263238"></path><path d="M391.55,284.65h-.94a.07.07,0,1,0,0,.14h.94A.08.08,0,0,0,391.55,284.65Z" style="fill:#263238"></path><path d="M389.46,284.66c-1.24,0-2.48,0-3.72-.08l-1.87-.06a7.15,7.15,0,0,0-1.73,0,.06.06,0,0,0,0,.12,6.64,6.64,0,0,0,1.73.12l1.86,0h3.72A.08.08,0,0,0,389.46,284.66Z" style="fill:#263238"></path><path d="M378.62,296.29a52.64,52.64,0,0,0-7.62-.69s0,.06,0,.06c2.53.24,5.07.38,7.58.79C378.68,296.46,378.72,296.31,378.62,296.29Z" style="fill:#263238"></path><path d="M368.26,285.2c0-.22-.05-.44-.08-.66-.07-.5-.14-1-.22-1.5-.15-.94-.32-1.89-.5-2.83,0-.09-.16-.06-.15,0,.12,1,.22,1.95.31,2.92.05.48.08,1,.13,1.44a3.92,3.92,0,0,0,.19,1.37.18.18,0,0,0,.33-.05A1.75,1.75,0,0,0,368.26,285.2Z" style="fill:#263238"></path><path d="M419,256.84c-1.23-2.29-2.8-5.33-5.88-5.13-2.54.16-3.69,2.75-4.23,4.9-1.68,6.63-1.8,13.63-2.13,20.43-.69,14.37-1.31,28.75-1.4,43.14,0,4,0,8,0,12s0,8.16.29,12.22a.3.3,0,0,0,.6,0c0-3.47-.1-7-.12-10.43s0-6.8.07-10.19q.17-10.32.55-20.62c.25-6.84.55-13.66.84-20.49.15-3.42.29-6.83.45-10.24s.29-6.62.67-9.91c.21-1.84.48-3.68.86-5.5a7.71,7.71,0,0,1,1.59-3.68,3.48,3.48,0,0,1,4.5-.33,9.65,9.65,0,0,1,3.19,4C418.9,257,419,256.94,419,256.84Z" style="fill:#263238"></path><path d="M418.16,255.75s-2.53-8.94,3.06-4.47c9.32,7.44,9.65,23.63,9.65,23.63s-16.56-9.62-18.62-16C409.18,249.49,418.16,255.75,418.16,255.75Z" style="fill:#E60003"></path><path d="M427.39,268.27l-.47-.73a4.82,4.82,0,0,0,0-.76c0-.39,0-.77,0-1.16,0-.75.05-1.51.08-2.26,0-.11-.15-.1-.16,0,0,.74-.06,1.48-.08,2.22,0,.38,0,.75,0,1.12,0,.14,0,.31,0,.47-.65-1-1.31-2-2-3l-.62-.84a17.8,17.8,0,0,1-.05-2.92q0-1.56.06-3.12c0-.1-.15-.1-.15,0,0,1.09-.09,2.17-.14,3.25a22.2,22.2,0,0,0-.07,2.31c-1.6-2.18-3.29-4.27-5-6.36-.06-.07-.18,0-.13.1,1.07,1.35,2.09,2.73,3.09,4.12-2-.45-3.93-.71-5.91-1-.11,0-.14.14,0,.16,2.09.31,4.15.84,6.22,1.3h0c.8,1.12,1.58,2.24,2.36,3.37.32.45.63.92.94,1.38h-.09l-.64-.09-1.38-.13c-1-.07-1.91-.12-2.87-.17-.1,0-.1.15,0,.16.95,0,1.88.09,2.82.19l1.48.18.65.08.19,0L427,268.5c.94,1.38,1.77,2.87,2.77,4.2a.08.08,0,0,0,.13-.08A45.13,45.13,0,0,0,427.39,268.27Z" style="fill:#263238"></path><path d="M423.26,258.17c0-.35,0-.69,0-1a16,16,0,0,1,.09-2.19c0-.12-.16-.13-.16,0,0,.72-.08,1.45-.11,2.17,0,.36,0,.73,0,1.09v.5a1.51,1.51,0,0,0,0,.52c0,.07.11.06.14,0a1.49,1.49,0,0,0,0-.47C423.26,258.53,423.26,258.35,423.26,258.17Z" style="fill:#263238"></path><path d="M421.22,261.88c-.62-.11-1.25-.14-1.87-.19s-1.37-.12-2.05-.21a.08.08,0,1,0,0,.16c1.31.08,2.61.32,3.92.36C421.27,262,421.29,261.89,421.22,261.88Z" style="fill:#263238"></path><path d="M426.42,261.93c.05.07,0,.26,0,.34v.29c0,.21,0,.42,0,.63v.62a1.26,1.26,0,0,0,0,.55s.05,0,.06,0a.57.57,0,0,0,0-.26v-.29c0-.21,0-.42,0-.62v-.92c0-.09,0-.27,0-.34S426.31,261.78,426.42,261.93Z" style="fill:#263238"></path><path d="M419.38,304.56c-3.49-2.62-6.62-6.38-11.3-6.56-3.87-.15-6.58,2.76-8.13,6a33.93,33.93,0,0,0-1.9,5.34c-.7,2.45-1.35,4.91-2,7.38-1.21,4.86-2.26,9.76-3.1,14.7-.47,2.75-.91,5.51-1.26,8.28a68.93,68.93,0,0,0-.81,8.48.44.44,0,0,0,.86.1c.47-2.32.67-4.71,1-7s.7-4.71,1.1-7.06c.8-4.69,1.72-9.37,2.77-14,1-4.38,2-8.83,3.4-13.1,1-3.06,2.64-6.63,5.94-7.73,5-1.67,9.6,2.58,13.28,5.34C419.35,304.74,419.46,304.62,419.38,304.56Z" style="fill:#263238"></path><path d="M415.77,302.06s-3.21-9.17,1.44-11c7-2.7,25.18,17.82,21.61,49.27,0,0-14.08-7.76-24.47-16.48s-13.06-20.12-8.48-23.07S415.77,302.06,415.77,302.06Z" style="fill:#E60003"></path><path d="M436.72,333.62a24.15,24.15,0,0,0-1.7-3.17c-.59-1.08-1.19-2.15-1.81-3.21-1.22-2.07-2.42-4.15-3.66-6.2-.2-.33-.4-.66-.61-1,0-.12.05-.25.08-.37l.21-.91c.15-.68.27-1.37.4-2.06.25-1.34.49-2.71.85-4a.08.08,0,0,0-.16,0c-.29,1.35-.71,2.67-1.11,4-.19.65-.4,1.29-.57,1.95l-.18.67c-1.5-2.45-3-4.89-4.66-7.25a3.34,3.34,0,0,0,.16-1c.05-.46.11-.92.16-1.38.12-1,.24-2.07.39-3.1a58,58,0,0,1,1.11-6c0-.1-.13-.13-.16,0-.5,2-1,4-1.42,6-.19,1-.36,2-.49,3-.07.5-.12,1-.17,1.49l-.06.46c-.51-.72-1-1.43-1.54-2.13-1.61-2.11-3.27-4.18-4.95-6.23-.07-.08-.2,0-.13.09a111.31,111.31,0,0,1,7.91,11.56l1.37,2.22-.45-.05c-.59-.08-1.19-.12-1.78-.17l-3.55-.31c-2.37-.19-4.75-.33-7.12-.59-.1,0-.13.15,0,.16,2.39.27,4.78.66,7.17,1,1.17.17,2.35.32,3.52.47a13.34,13.34,0,0,0,2.72.28l2.79,4.54a4.38,4.38,0,0,0-.63,0h-3.39c-1.52,0-3.05,0-4.58,0-.1,0-.08.16,0,.16,1.55,0,3.09.1,4.63.18l2.2.13,1.1.08a2.26,2.26,0,0,0,1,0l2.38,3.87c.72,1.18,1.46,2.37,2.21,3.54a29.07,29.07,0,0,0,2.39,3.59A.09.09,0,0,0,436.72,333.62Z" style="fill:#263238"></path><path d="M430,308.2a21.76,21.76,0,0,1-.63,3c-.26,1-.56,2-.89,3a.1.1,0,1,0,.19.06q.46-1.48.84-3c.24-1,.4-2,.65-3C430.19,308.13,430,308.1,430,308.2Z" style="fill:#263238"></path><path d="M419.67,314.35a1.13,1.13,0,0,0-.77-.29l-1.33-.18c-.82-.11-1.65-.2-2.48-.3-1.71-.2-3.43-.37-5.14-.59-.1,0-.13.15,0,.16,1.62.2,3.23.44,4.84.66l2.38.3,1.14.13a4.1,4.1,0,0,1,1.31.23A.07.07,0,0,0,419.67,314.35Z" style="fill:#263238"></path><path d="M430,328.17c-.81-.07-1.62-.09-2.43-.12l-1.23,0-.59,0A3.94,3.94,0,0,1,425,328c-.11,0-.12.18,0,.16a3.47,3.47,0,0,1,.72,0l.64,0,1.23.08c.81,0,1.63.09,2.44.1C430.07,328.35,430.08,328.18,430,328.17Z" style="fill:#263238"></path><path d="M435,324.66c.09-.46.18-.93.26-1.39.17-.9.33-1.81.5-2.72,0-.1-.13-.12-.16,0-.2.88-.39,1.76-.59,2.64-.1.45-.2.89-.29,1.33-.05.2-.09.41-.13.61a1.61,1.61,0,0,0-.07.65c0,.08.12.14.17.06A3.27,3.27,0,0,0,435,324.66Z" style="fill:#263238"></path><polygon points="387.28 344.66 388.26 355.81 391.59 393.44 421.07 393.44 425.23 355.81 426.46 344.66 387.28 344.66" style="fill:#455a64"></polygon><polygon points="387.28 344.66 388.26 355.81 425.23 355.81 426.46 344.66 387.28 344.66" style="fill:#263238"></polygon><rect x="384.36" y="341.62" width="45.01" height="9.04" transform="translate(813.74 692.29) rotate(180)" style="fill:#455a64"></rect></g><g id="freepik--Puff--inject-54"><path d="M71.64,393.41l137.12.59c33.33-26.17,36.77-64.94,13-88.45-14.4-14.21-32.67-11.34-50.07-13.61h-.05A51.51,51.51,0,0,1,154,286.76c-17.91-9.46-28-31.75-43.09-50.51-1.88-2.35-3.84-4.64-5.9-6.84-12.4-13.24-37.07-13.67-50,4.94C22.24,281.63,37.26,352,71.64,393.41Z" style="fill:#E60003"></path><path d="M68.59,285.23c3.6,56.26,68.57,77.26,109.14,60.41,35.29-14.66,23.74-48.1-6-53.7h-.05A51.51,51.51,0,0,1,154,286.76c-17.91-9.46-28-31.75-43.09-50.51C88.45,224.59,66,244,68.59,285.23Z" style="opacity:0.1"></path></g><g id="freepik--Floor--inject-54"><polygon points="36.79 393.56 90.09 393.31 143.4 393.23 250 393.06 356.6 393.23 409.9 393.31 463.21 393.56 409.9 393.8 356.6 393.89 250 394.06 143.4 393.89 90.09 393.8 36.79 393.56" style="fill:#263238"></polygon></g><g id="freepik--Character--inject-54"><path d="M166.83,458.24c2.19.71,64.58-.1,66.93-1.64.9-.57,1.32-9.67,1.5-20.68v-.34c0-2.27.07-4.61.08-7,0-.33,0-.66,0-1,.09-15.89-.17-32.37-.17-32.37l-41.73.42,1.26,32.06,0,1.27.26,6.64,0,.68s-23.74,11-26.15,13S164.64,457.54,166.83,458.24Z" style="fill:#f7a9a0"></path><path d="M185.58,440.6c.16-.05.24-.1.25-.14A2.28,2.28,0,0,0,185.58,440.6Z" style="fill:#E60003"></path><path d="M165.61,458.41c1.45.46,28.44.23,48.09-.42,4.55-.16,8.71-.33,12.06-.52,4.62-.27,7.72-.56,8.22-.89.86-.57,1.87-26,1.61-29l-41.14.59-.08,7.84s-24.23,11.28-26.68,13.29S163.38,457.7,165.61,458.41Z" style="fill:#E60003"></path><path d="M167.07,455.85c10.68-.43,53.79-1.14,64.38-.74.08,0,.08.06,0,.06-10.58.66-53.69,1-64.38.85C166.85,456,166.85,455.85,167.07,455.85Z" style="fill:#263238"></path><path d="M193.42,433.61c4.19-.85,9.34-.28,12.6,2.67.13.11,0,.29-.18.25a58.59,58.59,0,0,0-12.4-2.39A.27.27,0,0,1,193.42,433.61Z" style="fill:#263238"></path><path d="M190.41,435.49c4.19-.85,9.34-.28,12.6,2.66.13.12,0,.29-.17.25a59.46,59.46,0,0,0-12.4-2.38A.27.27,0,0,1,190.41,435.49Z" style="fill:#263238"></path><path d="M187.41,437.36c4.19-.85,9.34-.28,12.6,2.67.12.11,0,.29-.18.25a58.71,58.71,0,0,0-12.4-2.39A.27.27,0,0,1,187.41,437.36Z" style="fill:#263238"></path><path d="M184.4,439.24c4.19-.85,9.34-.28,12.6,2.66.13.12,0,.29-.18.25a59.21,59.21,0,0,0-12.4-2.38A.27.27,0,0,1,184.4,439.24Z" style="fill:#263238"></path><path d="M187.48,430c3,2.27,6.89,3.15,10.38,4.38a.52.52,0,0,0,.66-.53c.07,0,.12-.07.09-.15a22.46,22.46,0,0,0-6.62-9.54c-1.77-1.44-4.87-2.42-6.48-.12S185.73,428.65,187.48,430Zm-1.12-3.37c-.81-4.6,4.18-2.25,5.44-1.13a24.18,24.18,0,0,1,2.27,2.37c1.48,1.72,2.69,3.63,4,5.48-1.68-.71-3.4-1.27-5.11-1.92C190.93,430.63,186.81,429.14,186.36,426.6Z" style="fill:#263238"></path><path d="M212.55,427.05c-1.06-2.61-4.29-2.36-6.35-1.35a22.55,22.55,0,0,0-8.6,7.79.11.11,0,0,0,.06.17c-.06.32.13.72.52.67,3.67-.41,7.66-.4,11.1-1.93C211.29,431.51,213.55,429.51,212.55,427.05Zm-8.93,5.52c-1.8.24-3.61.4-5.4.71,1.68-1.51,3.29-3.09,5.12-4.44a25.85,25.85,0,0,1,2.74-1.8c1.49-.8,6.88-2,5,2.34C210.12,431.75,205.77,432.27,203.62,432.57Z" style="fill:#263238"></path><path d="M257.52,213.91s-18.9,105.42-20.42,113.47c-.36,1.83-.58,11.79-.72,24.6-.23,19.38,4.72,43.52,4.75,60.2a18,18,0,0,1-4.88,12.1h-44a21.89,21.89,0,0,1-3.13-12.1c.43-24.56,4.89-72.9,6.38-85.25,1.95-16.08,23.93-113,23.93-113Z" style="fill:#37474f"></path><path d="M194.26,415.62c6.86-.15,4.89-.2,11.75-.27,3.36,0,25.43-.22,28.57.3.07,0,.07.12,0,.14-3.14.52-25.21.32-28.57.29-6.86-.06-4.89-.12-11.75-.26A.1.1,0,0,1,194.26,415.62Z" style="fill:#263238"></path><path d="M231.34,317q1.8-9.35,3.67-18.67c2.46-12.32,4.91-24.64,7.54-36.93s5.45-24.64,8.27-36.94c.35-1.53.7-3.06,1.07-4.58,0-.15.26-.08.23.07-5.16,24.6-10.46,49.17-15.34,73.82q-1.83,9.24-3.6,18.5c-1.15,6-2.51,12-2.93,18.08a167.21,167.21,0,0,0,.3,18.73q.42,9.38.9,18.76c.75,14,1.84,27.94,3.15,41.89,0,.11-.18.13-.2,0-1.86-12.33-2.81-24.81-3.57-37.25q-.57-9.37-1-18.75c-.29-6.24-.73-12.5-.68-18.74A99.28,99.28,0,0,1,231.34,317Z" style="fill:#263238"></path><path d="M222.54,213.91l17.15,99.27c5.56-30.78,17.84-99.27,17.84-99.27Z" style="fill:#263238"></path><path d="M272.07,454.4c2.3,0,61.22-20.55,63-22.76.68-.83-1.81-9.59-5.13-20.09l-.1-.32c-.68-2.17-1.39-4.39-2.14-6.64-.1-.31-.21-.62-.3-.93C322.41,388.57,317,373,317,373L277.5,386.63l11.35,30,.44,1.19,2.35,6.22.23.64s-19,17.94-20.7,20.57S269.77,454.43,272.07,454.4Z" style="fill:#f7a9a0"></path><path d="M283.34,432c.12-.09.19-.15.19-.19Z" style="fill:#E60003"></path><path d="M271,455.17c1.52,0,27.06-8.75,45.51-15.56,4.26-1.58,8.15-3.06,11.28-4.29,4.3-1.72,7.15-3,7.52-3.44.64-.81-6.43-25.3-7.63-28.07l-38.85,13.53,2.39,7.46s-19.43,18.35-21.13,21S268.69,455.19,271,455.17Z" style="fill:#E60003"></path><path d="M271.62,452.27c10-3.77,50.69-18,60.86-21,.08,0,.1,0,0,.06-9.83,4-50.63,17.88-60.82,21.1C271.46,452.51,271.41,452.35,271.62,452.27Z" style="fill:#263238"></path><path d="M289.61,422.87c3.71-2.13,8.78-3.21,12.8-1.44.16.07.06.29-.08.29a58.8,58.8,0,0,0-12.52,1.65A.27.27,0,0,1,289.61,422.87Z" style="fill:#263238"></path><path d="M287.35,425.6c3.71-2.13,8.78-3.21,12.8-1.45.16.07.06.29-.09.3a59.52,59.52,0,0,0-12.52,1.64A.27.27,0,0,1,287.35,425.6Z" style="fill:#263238"></path><path d="M285.09,428.32c3.71-2.12,8.78-3.21,12.8-1.44.15.07.05.29-.09.29a59.45,59.45,0,0,0-12.52,1.65A.27.27,0,0,1,285.09,428.32Z" style="fill:#263238"></path><path d="M282.83,431.05c3.71-2.13,8.78-3.21,12.8-1.44.15.07.05.29-.09.29A58.8,58.8,0,0,0,283,431.55.27.27,0,0,1,282.83,431.05Z" style="fill:#263238"></path><path d="M282.83,421.28c3.57,1.21,7.54.82,11.24.89a.52.52,0,0,0,.45-.71.11.11,0,0,0,0-.18,22.46,22.46,0,0,0-9.29-7c-2.14-.81-5.38-.76-6.19,1.93S280.75,420.58,282.83,421.28Zm-2.12-2.84c-2.22-4.11,3.25-3.45,4.81-2.79a22.87,22.87,0,0,1,2.89,1.54c1.95,1.17,3.7,2.59,5.52,3.94-1.82-.14-3.63-.13-5.45-.21C286.31,420.82,281.93,420.71,280.71,418.44Z" style="fill:#263238"></path><path d="M305.7,410.61c-1.82-2.14-4.81-.88-6.45.72a22.57,22.57,0,0,0-5.7,10.11.11.11,0,0,0,.11.14.51.51,0,0,0,.7.47c3.36-1.55,7.14-2.79,9.93-5.33C305.91,415.24,307.43,412.63,305.7,410.61ZM299,418.66c-1.63.8-3.3,1.52-4.9,2.39a65.73,65.73,0,0,1,3.46-5.83,25.31,25.31,0,0,1,2-2.58c1.16-1.23,5.91-4,5.53.63C304.88,415.84,300.92,417.7,299,418.66Z" style="fill:#263238"></path><path d="M287,414.09l41.51-13.41s1.41-3.31.23-11.64C325.51,366.21,286,332.29,285,326.3c-1.45-8.69-5.68-43-9.22-72.41,0,0,6.72-15.94-5.87-40H219.41s3.38,22.92,9.18,37.44a67.29,67.29,0,0,1,11.22,5.13s4.17,67,4.36,75.18c.29,12.72,23.09,55.87,32.34,73.45C279.5,410.75,287,414.09,287,414.09Z" style="fill:#37474f"></path><path d="M285.06,405.57c6.46-2.33,4.57-1.75,11.05-4,3.17-1.1,24-8.34,27.16-8.85.07,0,.11.1.05.13-2.81,1.5-23.78,8.37-27,9.41-6.53,2.14-4.68,1.45-11.23,3.51A.1.1,0,0,1,285.06,405.57Z" style="fill:#263238"></path><path d="M254.38,217.14a.17.17,0,0,1,.2,0c.26.12.34.6.43.85.21.54.43,1.08.63,1.63.4,1.09.79,2.19,1.19,3.28a12.35,12.35,0,0,0,7.3,8.66,37.3,37.3,0,0,0,6.21,2c.17.05.14.34,0,.32-1.08-.13-2.16-.4-3.22-.62a30.31,30.31,0,0,1-3.12-.79,12.27,12.27,0,0,1-4.92-2.89,11.61,11.61,0,0,1-2.81-5.33c-.31-1.1-.6-2.21-.9-3.31-.15-.56-.31-1.12-.46-1.68l-.24-1c0-.13-.21-.54-.14-.74C254.29,217.5,254.18,217.34,254.38,217.14Z" style="fill:#263238"></path><path d="M268.29,217a49.14,49.14,0,0,1,5.32,32.49,42.46,42.46,0,0,0-.81,9.61c.16,3.23.59,6.46.93,9.68q1,9.68,2.06,19.36c1.38,13,2.73,28.9,4.23,39,.12.86,46,54.7,44.7,63.73,0,.09-.12.13-.15,0-3.94-14.44-44.8-60.87-45.27-63.26-2.14-11-2.44-22.27-3.63-33.41q-1-9.68-2.06-19.36c-.34-3.22-.67-6.45-1-9.68a63.71,63.71,0,0,1-.54-9.56c.14-3.08.93-6.06,1.31-9.11a47.72,47.72,0,0,0,.3-8.45,49.23,49.23,0,0,0-3.93-16.9c-.57-1.33-1.19-2.62-1.87-3.89A.24.24,0,0,1,268.29,217Z" style="fill:#263238"></path><path d="M226.67,250.32a83,83,0,0,1,13.14,6.12.15.15,0,0,1-.12.27c-4.43-1.9-8.94-3.72-13.26-5.86A.29.29,0,0,1,226.67,250.32Z" style="fill:#263238"></path><path d="M225.26,219.94c0-.15.28-.19.28,0a147.26,147.26,0,0,0,.75,14.79c.2,2.28,2,14.88,6,14,.66-.15,1-.8,1.1-1.8a15.6,15.6,0,0,0-.52-3.87c-.44-2.63-.79-5.28-1-7.95a72.75,72.75,0,0,1,.16-14.9.13.13,0,0,1,.26,0,136.1,136.1,0,0,0,1.2,20.58c.5,3.28,2.15,8.21-1.28,8.72s-5.75-7.75-6.18-10A75.88,75.88,0,0,1,225.26,219.94Z" style="fill:#263238"></path><path d="M232.18,249a21.78,21.78,0,0,1,.88,2.62,5.85,5.85,0,0,1,.37,2.14c0,.14-.2.15-.27.06a7.69,7.69,0,0,1-.92-2.09c-.3-.81-.62-1.61-.89-2.43A.44.44,0,0,1,232.18,249Z" style="fill:#263238"></path><path d="M232.66,213.81a4.37,4.37,0,0,1,.39,1.95.35.35,0,1,1-.7,0,3.74,3.74,0,0,0-.16-1.14l0-.11s0-.14,0,0a.88.88,0,0,0,0-.15l-.06-.14a.35.35,0,0,1,.63-.32Z" style="fill:#c7c7c7"></path><path d="M233,217.29a4.39,4.39,0,0,1,.39,2,.36.36,0,0,1-.71-.05,3.44,3.44,0,0,0-.15-1.14.49.49,0,0,0,0-.11s0-.14,0,0l-.06-.15a.78.78,0,0,0,0-.14.36.36,0,0,1,.15-.47.37.37,0,0,1,.48.15Z" style="fill:#c7c7c7"></path><path d="M233.81,220.47a4.28,4.28,0,0,1,1,1.7.35.35,0,0,1-.24.43.37.37,0,0,1-.44-.24,3.42,3.42,0,0,0-.53-1l-.07-.09s-.09-.12,0,0l-.11-.12a.52.52,0,0,0-.1-.11.35.35,0,1,1,.49-.51Z" style="fill:#c7c7c7"></path><path d="M235.66,223.5a4.38,4.38,0,0,1,1.41,1.4.35.35,0,0,1-.61.35,3.31,3.31,0,0,0-.77-.86l-.08-.07,0,0-.13-.09a.57.57,0,0,0-.13-.08.36.36,0,0,1,.35-.62Z" style="fill:#c7c7c7"></path><path d="M238.17,225.88a4.43,4.43,0,0,1,1.61,1.16.35.35,0,1,1-.55.44,3.7,3.7,0,0,0-.89-.72l-.1-.06,0,0a.61.61,0,0,0-.14-.07.59.59,0,0,0-.14-.06.36.36,0,0,1,.25-.67Z" style="fill:#c7c7c7"></path><path d="M241.08,227.83a4.26,4.26,0,0,1,1.7,1,.35.35,0,1,1-.51.48,3.58,3.58,0,0,0-1-.66l-.1,0,0,0-.15-.06-.14-.05a.37.37,0,0,1-.24-.44.35.35,0,0,1,.43-.24Z" style="fill:#c7c7c7"></path><path d="M244.05,229.56a4.37,4.37,0,0,1,1.74.95.34.34,0,0,1,0,.49.35.35,0,0,1-.49,0,3.43,3.43,0,0,0-1-.61l-.1,0s-.14-.05,0,0l-.15-.06-.14,0a.36.36,0,0,1-.27-.42.37.37,0,0,1,.43-.27Z" style="fill:#c7c7c7"></path><path d="M247.09,231.22a4.23,4.23,0,0,1,1.74.94.35.35,0,0,1,0,.5.36.36,0,0,1-.49,0,3.67,3.67,0,0,0-1-.61l-.1,0-.05,0-.15-.05-.14,0a.35.35,0,0,1-.27-.42.36.36,0,0,1,.43-.26Z" style="fill:#c7c7c7"></path><path d="M250.34,232.94a4.2,4.2,0,0,1,1.75.94.35.35,0,1,1-.49.51,3.94,3.94,0,0,0-1-.61l-.1,0,0,0-.15-.05-.15,0a.35.35,0,0,1-.26-.42.35.35,0,0,1,.42-.26Z" style="fill:#c7c7c7"></path><path d="M253.41,234.84a4.26,4.26,0,0,1,1.46,1.34.37.37,0,0,1-.12.49.36.36,0,0,1-.48-.11,4,4,0,0,0-.8-.84l-.09-.06s-.12-.09,0,0l-.14-.09-.13-.08a.36.36,0,0,1-.15-.47.35.35,0,0,1,.48-.15Z" style="fill:#c7c7c7"></path><path d="M255.88,237.56a4.28,4.28,0,0,1,1.16,1.6.34.34,0,0,1-.2.45.37.37,0,0,1-.46-.2,3.68,3.68,0,0,0-.61-1l-.08-.09,0,0-.11-.11-.11-.1a.35.35,0,1,1,.44-.55Z" style="fill:#c7c7c7"></path><path d="M257.82,240.51a4.22,4.22,0,0,1,.87,1.79.36.36,0,0,1-.29.41.37.37,0,0,1-.41-.29,3.58,3.58,0,0,0-.43-1.06l-.06-.1s-.08-.12,0,0l-.1-.13a.47.47,0,0,0-.09-.12.36.36,0,0,1,0-.49.35.35,0,0,1,.49,0Z" style="fill:#c7c7c7"></path><path d="M259.14,243.85a4.36,4.36,0,0,1,.65,1.88.35.35,0,0,1-.33.37.36.36,0,0,1-.38-.33,3.68,3.68,0,0,0-.31-1.11,1,1,0,0,1,0-.1l0,0-.08-.14-.08-.13a.36.36,0,0,1,.1-.49.36.36,0,0,1,.49.09Z" style="fill:#c7c7c7"></path><path d="M260.25,247.2A4.3,4.3,0,0,1,261,249a.35.35,0,0,1-.31.39.36.36,0,0,1-.39-.3,3.37,3.37,0,0,0-.38-1.09.47.47,0,0,0-.05-.1s-.07-.13,0,0l-.08-.14-.09-.12a.35.35,0,1,1,.56-.43Z" style="fill:#c7c7c7"></path><path d="M261.54,250.54a4.28,4.28,0,0,1,1.07,1.67.36.36,0,0,1-.68.21,3.6,3.6,0,0,0-.56-1l-.06-.09s-.1-.11,0,0l-.11-.12-.1-.11a.35.35,0,0,1,0-.5.36.36,0,0,1,.5,0Z" style="fill:#c7c7c7"></path><path d="M263.55,253.33a4.32,4.32,0,0,1,1.61,1.16.36.36,0,0,1-.06.5.35.35,0,0,1-.49-.06,3.51,3.51,0,0,0-.89-.73l-.1-.06,0,0-.14-.07a.59.59,0,0,0-.14-.06.36.36,0,0,1-.2-.46.35.35,0,0,1,.45-.2Z" style="fill:#c7c7c7"></path><path d="M266.29,255.28a4.42,4.42,0,0,1,2,.11.35.35,0,0,1-.22.67,3.66,3.66,0,0,0-1.15-.13h-.15l-.16,0-.15,0a.35.35,0,0,1-.42-.27.37.37,0,0,1,.27-.42Z" style="fill:#c7c7c7"></path><path d="M269.58,255.18a4.3,4.3,0,0,1,1.59-1.18.35.35,0,1,1,.26.65,4,4,0,0,0-1,.63l-.08.08s-.11.1,0,0l-.12.11-.1.12a.36.36,0,0,1-.49.06.36.36,0,0,1-.06-.5Z" style="fill:#c7c7c7"></path><path d="M272.08,252.79a4.38,4.38,0,0,1,1-1.73.35.35,0,0,1,.5.5,3.71,3.71,0,0,0-.63,1,1,1,0,0,1,0,.1s-.06.14,0,0l-.06.15s0,.09,0,.14a.36.36,0,0,1-.43.26.37.37,0,0,1-.26-.43Z" style="fill:#c7c7c7"></path><path d="M273.76,249.69a4.35,4.35,0,0,1,.42-1.94.35.35,0,1,1,.62.33,3.73,3.73,0,0,0-.31,1.11s0,.07,0,.11,0,.15,0,0a.92.92,0,0,0,0,.16v.15a.36.36,0,1,1-.71,0Z" style="fill:#c7c7c7"></path><path d="M274.5,246.26a4.31,4.31,0,0,1,0-2A.36.36,0,0,1,275,244a.37.37,0,0,1,.24.44,3.35,3.35,0,0,0-.09,1.14.49.49,0,0,0,0,.12s0,.14,0,0l0,.16a.77.77,0,0,0,0,.15.35.35,0,0,1-.25.43.36.36,0,0,1-.43-.25Z" style="fill:#c7c7c7"></path><path d="M274.52,242.64a4.19,4.19,0,0,1-.1-2,.36.36,0,0,1,.42-.26.36.36,0,0,1,.27.42,3.69,3.69,0,0,0,0,1.15s0,.07,0,.11,0,.14,0,0l0,.16a.83.83,0,0,0,0,.15.36.36,0,0,1-.23.44.35.35,0,0,1-.44-.22Z" style="fill:#c7c7c7"></path><path d="M274.43,239.08a4.37,4.37,0,0,1-.3-2,.35.35,0,0,1,.39-.31.36.36,0,0,1,.31.39,3.74,3.74,0,0,0,.1,1.15l0,.11s0,.14,0,0l0,.15a1.21,1.21,0,0,1,.05.14.35.35,0,0,1-.17.47.36.36,0,0,1-.47-.18Z" style="fill:#c7c7c7"></path><path d="M274,235.56a4.16,4.16,0,0,1-.13-2,.36.36,0,0,1,.41-.28.37.37,0,0,1,.28.42,3.42,3.42,0,0,0,0,1.15s0,.07,0,.11,0,.15,0,.05l0,.15s0,.1,0,.15a.35.35,0,1,1-.66.23Z" style="fill:#c7c7c7"></path><path d="M273.88,232a4.26,4.26,0,0,1,.31-2,.36.36,0,0,1,.47-.18.35.35,0,0,1,.17.47,3.8,3.8,0,0,0-.25,1.12v.12s0,.14,0,0a.81.81,0,0,0,0,.16v.15a.35.35,0,0,1-.7.08Z" style="fill:#c7c7c7"></path><path d="M274.45,228.64a4.27,4.27,0,0,1,.49-1.92.36.36,0,0,1,.49-.13.36.36,0,0,1,.13.48,3.68,3.68,0,0,0-.36,1.09s0,.08,0,.11,0,.15,0,0c0,.05,0,.1,0,.16s0,.1,0,.15a.35.35,0,0,1-.7,0Z" style="fill:#c7c7c7"></path><path d="M273.44,229l-.06.32a1.17,1.17,0,0,0,.9,1.39l.09,0a1.18,1.18,0,0,0,1.39-.9l.07-.32a1.18,1.18,0,0,0-.9-1.39l-.1,0A1.18,1.18,0,0,0,273.44,229Zm.47.17a.7.7,0,0,1,.83-.54h.06a.7.7,0,0,1,.54.83l0,.19a.71.71,0,0,1-.84.54h0a.7.7,0,0,1-.54-.83Z" style="fill:#dbdbdb"></path><path d="M273.75,229.07l-.05.25a.91.91,0,0,0,.7,1.08l.07,0a.92.92,0,0,0,1.09-.7l.05-.25a.91.91,0,0,0-.7-1.08l-.08,0A.92.92,0,0,0,273.75,229.07Zm.16.07a.7.7,0,0,1,.83-.54h.06a.7.7,0,0,1,.54.83l0,.19a.71.71,0,0,1-.84.54h0a.7.7,0,0,1-.54-.83Z" style="fill:#c7c7c7;opacity:0.4"></path><path d="M273,232.46l0,.32a1.18,1.18,0,0,0,1.07,1.27h.1a1.16,1.16,0,0,0,1.26-1.07l0-.32a1.15,1.15,0,0,0-1.07-1.26h-.09A1.18,1.18,0,0,0,273,232.46Zm.49.11a.7.7,0,0,1,.75-.65h.06a.7.7,0,0,1,.64.75l0,.2a.7.7,0,0,1-.75.64h-.06a.7.7,0,0,1-.64-.75Z" style="fill:#dbdbdb"></path><path d="M273.35,232.52l0,.25a.91.91,0,0,0,.84,1h.07a.92.92,0,0,0,1-.83l0-.25a.92.92,0,0,0-.84-1h-.08A.91.91,0,0,0,273.35,232.52Zm.17,0a.7.7,0,0,1,.75-.65h.06a.7.7,0,0,1,.64.75l0,.2a.7.7,0,0,1-.75.64h-.06a.7.7,0,0,1-.64-.75Z" style="fill:#c7c7c7;opacity:0.4"></path><path d="M273.15,236.33l0,.32a1.17,1.17,0,0,0,1.3,1h.09a1.18,1.18,0,0,0,1-1.3l0-.32a1.16,1.16,0,0,0-1.29-1h-.1A1.16,1.16,0,0,0,273.15,236.33Zm.49,0a.7.7,0,0,1,.62-.77h.06a.7.7,0,0,1,.77.62l0,.19a.71.71,0,0,1-.62.78h-.05a.71.71,0,0,1-.78-.62Z" style="fill:#dbdbdb"></path><path d="M273.47,236.33l0,.25a.91.91,0,0,0,1,.81h.07a.93.93,0,0,0,.81-1l0-.25a.93.93,0,0,0-1-.81h-.07A.91.91,0,0,0,273.47,236.33Zm.17,0a.7.7,0,0,1,.62-.77h.06a.7.7,0,0,1,.77.62l0,.19a.71.71,0,0,1-.62.78h-.05a.71.71,0,0,1-.78-.62Z" style="fill:#c7c7c7;opacity:0.4"></path><path d="M273.56,239.71l0,.33a1.17,1.17,0,0,0,1.3,1H275a1.18,1.18,0,0,0,1-1.3l0-.32a1.17,1.17,0,0,0-1.3-1h-.09A1.18,1.18,0,0,0,273.56,239.71Zm.5,0a.7.7,0,0,1,.62-.77h.05a.71.71,0,0,1,.78.62l0,.19a.71.71,0,0,1-.62.78h-.05a.69.69,0,0,1-.78-.61Z" style="fill:#dbdbdb"></path><path d="M273.89,239.71l0,.25a.9.9,0,0,0,1,.81H275a.92.92,0,0,0,.81-1l0-.25a.91.91,0,0,0-1-.8h-.08A.9.9,0,0,0,273.89,239.71Zm.17,0a.7.7,0,0,1,.62-.77h.05a.71.71,0,0,1,.78.62l0,.19a.71.71,0,0,1-.62.78h-.05a.69.69,0,0,1-.78-.61Z" style="fill:#c7c7c7;opacity:0.4"></path><path d="M273.58,243.19v.32a1.17,1.17,0,0,0,1.14,1.2h.1a1.17,1.17,0,0,0,1.2-1.14v-.32a1.16,1.16,0,0,0-1.14-1.2h-.09A1.17,1.17,0,0,0,273.58,243.19Zm.49.07a.7.7,0,0,1,.71-.68h.06a.7.7,0,0,1,.68.72v.19a.7.7,0,0,1-.72.69h-.06a.7.7,0,0,1-.68-.71Z" style="fill:#dbdbdb"></path><path d="M273.9,243.23v.25a.92.92,0,0,0,.89.94h.07a.92.92,0,0,0,.94-.89v-.25a.92.92,0,0,0-.89-.94h-.08A.91.91,0,0,0,273.9,243.23Zm.17,0a.7.7,0,0,1,.71-.68h.06a.7.7,0,0,1,.68.72v.19a.7.7,0,0,1-.72.69h-.06a.7.7,0,0,1-.68-.71Z" style="fill:#c7c7c7;opacity:0.4"></path><path d="M273.48,246.76v.32a1.18,1.18,0,0,0,1.14,1.2h.1a1.17,1.17,0,0,0,1.2-1.14v-.32a1.17,1.17,0,0,0-1.14-1.2h-.1A1.19,1.19,0,0,0,273.48,246.76Zm.49.07a.7.7,0,0,1,.72-.68h.05a.7.7,0,0,1,.69.72v.19a.7.7,0,0,1-.72.69h-.05A.7.7,0,0,1,274,247Z" style="fill:#dbdbdb"></path><path d="M273.8,246.8v.25a.92.92,0,0,0,.89.94h.08a.91.91,0,0,0,.93-.89v-.25a.92.92,0,0,0-.89-.94h-.07A.92.92,0,0,0,273.8,246.8Zm.17,0a.7.7,0,0,1,.72-.68h.05a.7.7,0,0,1,.69.72v.19a.7.7,0,0,1-.72.69h-.05A.7.7,0,0,1,274,247Z" style="fill:#c7c7c7;opacity:0.4"></path><path d="M272.72,249.8l-.13.3a1.17,1.17,0,0,0,.57,1.55l.09,0a1.17,1.17,0,0,0,1.55-.58l.14-.29a1.17,1.17,0,0,0-.58-1.55l-.09,0A1.17,1.17,0,0,0,272.72,249.8Zm.42.27a.71.71,0,0,1,.93-.35l.05,0a.7.7,0,0,1,.35.92l-.09.18a.68.68,0,0,1-.92.34l-.06,0a.7.7,0,0,1-.34-.93Z" style="fill:#dbdbdb"></path><path d="M273,250l-.11.23a.91.91,0,0,0,.45,1.21l.07,0a.91.91,0,0,0,1.21-.45l.11-.23a.91.91,0,0,0-.45-1.21l-.07,0A.91.91,0,0,0,273,250Zm.14.1a.71.71,0,0,1,.93-.35l.05,0a.7.7,0,0,1,.35.92l-.09.18a.68.68,0,0,1-.92.34l-.06,0a.7.7,0,0,1-.34-.93Z" style="fill:#c7c7c7;opacity:0.4"></path><path d="M271.11,252.64l-.22.24a1.18,1.18,0,0,0,.07,1.66l.08.06a1.16,1.16,0,0,0,1.65-.08l.22-.23a1.18,1.18,0,0,0-.08-1.66l-.07-.06A1.16,1.16,0,0,0,271.11,252.64Zm.31.38a.69.69,0,0,1,1,0l0,0a.71.71,0,0,1,0,1l-.13.15a.71.71,0,0,1-1,0l0,0a.7.7,0,0,1,0-1Z" style="fill:#dbdbdb"></path><path d="M271.32,252.88l-.17.19a.92.92,0,0,0,.06,1.29l.05,0a.92.92,0,0,0,1.29-.06l.17-.18a.91.91,0,0,0-.06-1.29l-.05,0A.91.91,0,0,0,271.32,252.88Zm.1.14a.69.69,0,0,1,1,0l0,0a.71.71,0,0,1,0,1l-.13.15a.71.71,0,0,1-1,0l0,0a.7.7,0,0,1,0-1Z" style="fill:#c7c7c7;opacity:0.4"></path><path d="M269,254.42l-.31.08a1.17,1.17,0,0,0-.83,1.43l0,.1a1.19,1.19,0,0,0,1.44.83l.31-.08a1.18,1.18,0,0,0,.83-1.44l0-.09A1.18,1.18,0,0,0,269,254.42Zm.07.49a.69.69,0,0,1,.85.5l0,.05a.71.71,0,0,1-.5.86l-.19.05a.7.7,0,0,1-.85-.5l0-.06a.7.7,0,0,1,.5-.85Z" style="fill:#dbdbdb"></path><path d="M269.05,254.74l-.24.06a.91.91,0,0,0-.65,1.12l0,.07a.91.91,0,0,0,1.11.65l.25-.06a.92.92,0,0,0,.65-1.12l0-.07A.91.91,0,0,0,269.05,254.74Zm0,.17a.69.69,0,0,1,.85.5l0,.05a.71.71,0,0,1-.5.86l-.19.05a.7.7,0,0,1-.85-.5l0-.06a.7.7,0,0,1,.5-.85Z" style="fill:#c7c7c7;opacity:0.4"></path><path d="M266.2,254.16l-.3-.12a1.16,1.16,0,0,0-1.52.64l0,.09a1.18,1.18,0,0,0,.65,1.53l.3.12a1.17,1.17,0,0,0,1.52-.65l0-.09A1.17,1.17,0,0,0,266.2,254.16Zm-.24.43a.7.7,0,0,1,.38.91l0,.05a.7.7,0,0,1-.91.39l-.18-.07a.7.7,0,0,1-.39-.91l0-.06a.69.69,0,0,1,.91-.38Z" style="fill:#dbdbdb"></path><path d="M266.05,254.44l-.24-.09a.92.92,0,0,0-1.19.5l0,.07a.91.91,0,0,0,.5,1.19l.24.09a.9.9,0,0,0,1.18-.5l0-.07A.92.92,0,0,0,266.05,254.44Zm-.09.15a.7.7,0,0,1,.38.91l0,.05a.7.7,0,0,1-.91.39l-.18-.07a.7.7,0,0,1-.39-.91l0-.06a.69.69,0,0,1,.91-.38Z" style="fill:#c7c7c7;opacity:0.4"></path><path d="M264,252.48l-.17-.27a1.17,1.17,0,0,0-1.62-.34l-.08,0a1.17,1.17,0,0,0-.35,1.62l.18.27a1.16,1.16,0,0,0,1.62.34l.08-.05A1.17,1.17,0,0,0,264,252.48Zm-.44.21a.71.71,0,0,1-.21,1l0,0a.71.71,0,0,1-1-.2l-.1-.16a.7.7,0,0,1,.2-1l.05,0a.7.7,0,0,1,1,.2Z" style="fill:#dbdbdb"></path><path d="M263.7,252.63l-.13-.21a.91.91,0,0,0-1.27-.27l-.06,0a.92.92,0,0,0-.27,1.26l.14.21a.92.92,0,0,0,1.26.27l.06,0A.9.9,0,0,0,263.7,252.63Zm-.15.06a.71.71,0,0,1-.21,1l0,0a.71.71,0,0,1-1-.2l-.1-.16a.7.7,0,0,1,.2-1l.05,0a.7.7,0,0,1,1,.2Z" style="fill:#c7c7c7;opacity:0.4"></path><path d="M262.23,249.64l-.12-.3a1.17,1.17,0,0,0-1.53-.64l-.09,0a1.17,1.17,0,0,0-.64,1.53l.12.3a1.17,1.17,0,0,0,1.53.64l.09,0A1.18,1.18,0,0,0,262.23,249.64Zm-.48.12a.71.71,0,0,1-.38.92l-.06,0a.71.71,0,0,1-.91-.39l-.07-.17a.7.7,0,0,1,.38-.92l.06,0a.71.71,0,0,1,.91.39Z" style="fill:#dbdbdb"></path><path d="M261.92,249.73l-.1-.24a.92.92,0,0,0-1.19-.5l-.06,0a.91.91,0,0,0-.51,1.19l.1.23a.91.91,0,0,0,1.19.51l.07,0A.92.92,0,0,0,261.92,249.73Zm-.17,0a.71.71,0,0,1-.38.92l-.06,0a.71.71,0,0,1-.91-.39l-.07-.17a.7.7,0,0,1,.38-.92l.06,0a.71.71,0,0,1,.91.39Z" style="fill:#c7c7c7;opacity:0.4"></path><path d="M260.9,246.41l-.11-.3a1.16,1.16,0,0,0-1.49-.72l-.09,0a1.16,1.16,0,0,0-.72,1.49l.1.31a1.19,1.19,0,0,0,1.5.72l.09,0A1.17,1.17,0,0,0,260.9,246.41Zm-.49.1a.69.69,0,0,1-.43.89l-.05,0A.69.69,0,0,1,259,247l-.07-.18a.7.7,0,0,1,.43-.89l.06,0a.7.7,0,0,1,.89.43Z" style="fill:#dbdbdb"></path><path d="M260.58,246.48l-.08-.23a.91.91,0,0,0-1.17-.56l-.07,0a.92.92,0,0,0-.56,1.16l.09.24a.9.9,0,0,0,1.16.56l.07,0A.91.91,0,0,0,260.58,246.48Zm-.17,0a.69.69,0,0,1-.43.89l-.05,0A.69.69,0,0,1,259,247l-.07-.18a.7.7,0,0,1,.43-.89l.06,0a.7.7,0,0,1,.89.43Z" style="fill:#c7c7c7;opacity:0.4"></path><path d="M259.85,242.92l-.13-.3a1.17,1.17,0,0,0-1.54-.61l-.09,0a1.17,1.17,0,0,0-.61,1.54l.12.29a1.18,1.18,0,0,0,1.54.62l.09,0A1.18,1.18,0,0,0,259.85,242.92Zm-.48.13a.7.7,0,0,1-.37.92l-.05,0a.71.71,0,0,1-.92-.37l-.08-.18a.71.71,0,0,1,.37-.92l.05,0a.7.7,0,0,1,.92.37Z" style="fill:#dbdbdb"></path><path d="M259.54,243l-.1-.23a.93.93,0,0,0-1.2-.48l-.07,0a.92.92,0,0,0-.48,1.2l.1.23a.91.91,0,0,0,1.2.48l.07,0A.91.91,0,0,0,259.54,243Zm-.17,0a.7.7,0,0,1-.37.92l-.05,0a.71.71,0,0,1-.92-.37l-.08-.18a.71.71,0,0,1,.37-.92l.05,0a.7.7,0,0,1,.92.37Z" style="fill:#c7c7c7;opacity:0.4"></path><path d="M258.34,239.54l-.18-.27a1.18,1.18,0,0,0-1.63-.31l-.08,0a1.18,1.18,0,0,0-.31,1.63l.18.27a1.18,1.18,0,0,0,1.63.31l.08-.05A1.18,1.18,0,0,0,258.34,239.54Zm-.44.22a.7.7,0,0,1-.19,1l0,0a.7.7,0,0,1-1-.19l-.11-.16a.7.7,0,0,1,.19-1l.05,0a.7.7,0,0,1,1,.19Z" style="fill:#dbdbdb"></path><path d="M258.05,239.69l-.14-.21a.91.91,0,0,0-1.26-.24l-.07,0a.92.92,0,0,0-.24,1.27l.14.21a.92.92,0,0,0,1.27.24l.06,0A.91.91,0,0,0,258.05,239.69Zm-.15.07a.7.7,0,0,1-.19,1l0,0a.7.7,0,0,1-1-.19l-.11-.16a.7.7,0,0,1,.19-1l.05,0a.7.7,0,0,1,1,.19Z" style="fill:#c7c7c7;opacity:0.4"></path><path d="M256.19,236.48l-.22-.24a1.18,1.18,0,0,0-1.66-.05l-.07.07a1.17,1.17,0,0,0,0,1.66l.22.23a1.17,1.17,0,0,0,1.65,0l.07-.07A1.15,1.15,0,0,0,256.19,236.48Zm-.4.29a.7.7,0,0,1,0,1l0,0a.71.71,0,0,1-1,0l-.13-.14a.7.7,0,0,1,0-1l0,0a.7.7,0,0,1,1,0Z" style="fill:#dbdbdb"></path><path d="M255.93,236.67l-.17-.18a.91.91,0,0,0-1.29,0l-.05.05a.91.91,0,0,0,0,1.29l.17.19a.91.91,0,0,0,1.29,0l.06,0A.91.91,0,0,0,255.93,236.67Zm-.14.1a.7.7,0,0,1,0,1l0,0a.71.71,0,0,1-1,0l-.13-.14a.7.7,0,0,1,0-1l0,0a.7.7,0,0,1,1,0Z" style="fill:#c7c7c7;opacity:0.4"></path><path d="M253.51,233.76l-.27-.18a1.18,1.18,0,0,0-1.63.32l-.05.08a1.17,1.17,0,0,0,.31,1.62l.27.18a1.16,1.16,0,0,0,1.63-.31l0-.08A1.18,1.18,0,0,0,253.51,233.76Zm-.33.37a.72.72,0,0,1,.19,1l0,0a.69.69,0,0,1-1,.19l-.16-.11a.69.69,0,0,1-.18-1l0,0a.69.69,0,0,1,1-.18Z" style="fill:#dbdbdb"></path><path d="M253.3,234l-.21-.14a.92.92,0,0,0-1.27.24l0,.06a.92.92,0,0,0,.25,1.27l.2.14a.91.91,0,0,0,1.27-.24l0-.06A.91.91,0,0,0,253.3,234Zm-.12.12a.72.72,0,0,1,.19,1l0,0a.69.69,0,0,1-1,.19l-.16-.11a.69.69,0,0,1-.18-1l0,0a.69.69,0,0,1,1-.18Z" style="fill:#c7c7c7;opacity:0.4"></path><path d="M250.13,231.72l-.3-.12a1.17,1.17,0,0,0-1.53.64l0,.08a1.17,1.17,0,0,0,.64,1.53l.3.13a1.18,1.18,0,0,0,1.53-.64l0-.09A1.17,1.17,0,0,0,250.13,231.72Zm-.25.43a.7.7,0,0,1,.38.92l0,.05a.7.7,0,0,1-.92.38l-.17-.07a.72.72,0,0,1-.39-.92l0,0a.69.69,0,0,1,.91-.38Z" style="fill:#dbdbdb"></path><path d="M250,232l-.23-.1a.91.91,0,0,0-1.19.5l0,.07a.92.92,0,0,0,.49,1.19l.24.09a.91.91,0,0,0,1.19-.49l0-.07A.91.91,0,0,0,250,232Zm-.09.14a.7.7,0,0,1,.38.92l0,.05a.7.7,0,0,1-.92.38l-.17-.07a.72.72,0,0,1-.39-.92l0,0a.69.69,0,0,1,.91-.38Z" style="fill:#c7c7c7;opacity:0.4"></path><path d="M246.93,230.18l-.3-.12a1.17,1.17,0,0,0-1.53.64l0,.08a1.17,1.17,0,0,0,.64,1.53l.3.13a1.18,1.18,0,0,0,1.53-.64l0-.09A1.18,1.18,0,0,0,246.93,230.18Zm-.25.43a.7.7,0,0,1,.38.92l0,.05a.69.69,0,0,1-.91.38l-.18-.07a.7.7,0,0,1-.38-.92l0-.05a.69.69,0,0,1,.91-.38Z" style="fill:#dbdbdb"></path><path d="M246.77,230.47l-.23-.1a.91.91,0,0,0-1.19.5l0,.07a.91.91,0,0,0,.5,1.19l.23.09a.91.91,0,0,0,1.19-.49l0-.07A.91.91,0,0,0,246.77,230.47Zm-.09.14a.7.7,0,0,1,.38.92l0,.05a.69.69,0,0,1-.91.38l-.18-.07a.7.7,0,0,1-.38-.92l0-.05a.69.69,0,0,1,.91-.38Z" style="fill:#c7c7c7;opacity:0.4"></path><path d="M244.06,228.48l-.28-.15a1.18,1.18,0,0,0-1.59.49l0,.08a1.17,1.17,0,0,0,.48,1.59l.29.15a1.17,1.17,0,0,0,1.58-.49l.05-.08A1.19,1.19,0,0,0,244.06,228.48Zm-.29.41a.69.69,0,0,1,.29.94l0,0a.7.7,0,0,1-.95.3l-.17-.1a.69.69,0,0,1-.29-.94l0,0a.69.69,0,0,1,.94-.29Z" style="fill:#dbdbdb"></path><path d="M243.88,228.75l-.22-.12a.93.93,0,0,0-1.24.38l0,.07a.9.9,0,0,0,.38,1.23l.22.12a.9.9,0,0,0,1.23-.38l0-.06A.93.93,0,0,0,243.88,228.75Zm-.11.14a.69.69,0,0,1,.29.94l0,0a.7.7,0,0,1-.95.3l-.17-.1a.69.69,0,0,1-.29-.94l0,0a.69.69,0,0,1,.94-.29Z" style="fill:#c7c7c7;opacity:0.4"></path><path d="M241.13,226.81l-.27-.17a1.18,1.18,0,0,0-1.62.35l-.05.08a1.17,1.17,0,0,0,.35,1.62l.27.17a1.17,1.17,0,0,0,1.62-.34l0-.09A1.17,1.17,0,0,0,241.13,226.81Zm-.32.38a.7.7,0,0,1,.21,1l0,.05a.71.71,0,0,1-1,.21l-.16-.11a.7.7,0,0,1-.21-1l0,0a.7.7,0,0,1,1-.21Z" style="fill:#dbdbdb"></path><path d="M240.93,227.07l-.21-.14a.93.93,0,0,0-1.27.27l0,.06a.92.92,0,0,0,.28,1.27l.21.13a.91.91,0,0,0,1.26-.27l0-.06A.91.91,0,0,0,240.93,227.07Zm-.12.12a.7.7,0,0,1,.21,1l0,.05a.71.71,0,0,1-1,.21l-.16-.11a.7.7,0,0,1-.21-1l0,0a.7.7,0,0,1,1-.21Z" style="fill:#c7c7c7;opacity:0.4"></path><path d="M238.51,224.86l-.22-.23a1.17,1.17,0,0,0-1.66,0l-.07.06a1.17,1.17,0,0,0,0,1.66l.23.23a1.16,1.16,0,0,0,1.65,0l.07-.07A1.16,1.16,0,0,0,238.51,224.86Zm-.39.3a.71.71,0,0,1,0,1l0,0a.71.71,0,0,1-1,0l-.14-.14a.71.71,0,0,1,0-1l0,0a.71.71,0,0,1,1,0Z" style="fill:#dbdbdb"></path><path d="M238.26,225.06l-.18-.18a.91.91,0,0,0-1.29,0l0,.05a.91.91,0,0,0,0,1.29l.18.18a.91.91,0,0,0,1.29,0l0-.05A.91.91,0,0,0,238.26,225.06Zm-.14.1a.71.71,0,0,1,0,1l0,0a.71.71,0,0,1-1,0l-.14-.14a.71.71,0,0,1,0-1l0,0a.71.71,0,0,1,1,0Z" style="fill:#c7c7c7;opacity:0.4"></path><path d="M236.13,222.59l-.16-.27a1.17,1.17,0,0,0-1.6-.42l-.09,0a1.17,1.17,0,0,0-.41,1.6l.16.28a1.19,1.19,0,0,0,1.61.42l.08-.05A1.17,1.17,0,0,0,236.13,222.59Zm-.45.2a.7.7,0,0,1-.25,1l-.05,0a.7.7,0,0,1-1-.24l-.1-.17a.71.71,0,0,1,.25-1l.05,0a.71.71,0,0,1,1,.25Z" style="fill:#dbdbdb"></path><path d="M235.84,222.73l-.13-.22a.9.9,0,0,0-1.25-.32l-.06,0a.92.92,0,0,0-.33,1.25l.13.22a.91.91,0,0,0,1.25.32l.07,0A.91.91,0,0,0,235.84,222.73Zm-.16.06a.7.7,0,0,1-.25,1l-.05,0a.7.7,0,0,1-1-.24l-.1-.17a.71.71,0,0,1,.25-1l.05,0a.71.71,0,0,1,1,.25Z" style="fill:#c7c7c7;opacity:0.4"></path><path d="M234.48,219.73l-.11-.3a1.16,1.16,0,0,0-1.48-.73l-.1,0a1.17,1.17,0,0,0-.73,1.49l.11.3a1.17,1.17,0,0,0,1.49.73l.09,0A1.17,1.17,0,0,0,234.48,219.73Zm-.49.1a.7.7,0,0,1-.43.89l-.06,0a.7.7,0,0,1-.89-.44l-.06-.18a.69.69,0,0,1,.44-.89l0,0a.7.7,0,0,1,.89.44Z" style="fill:#dbdbdb"></path><path d="M234.16,219.8l-.08-.23a.9.9,0,0,0-1.16-.57l-.07,0a.91.91,0,0,0-.57,1.16l.08.24a.92.92,0,0,0,1.16.57l.07,0A.91.91,0,0,0,234.16,219.8Zm-.17,0a.7.7,0,0,1-.43.89l-.06,0a.7.7,0,0,1-.89-.44l-.06-.18a.69.69,0,0,1,.44-.89l0,0a.7.7,0,0,1,.89.44Z" style="fill:#c7c7c7;opacity:0.4"></path><path d="M233.87,216.75v-.32a1.18,1.18,0,0,0-1.22-1.13h-.1a1.17,1.17,0,0,0-1.12,1.21v.33a1.18,1.18,0,0,0,1.22,1.12h.1A1.17,1.17,0,0,0,233.87,216.75Zm-.49-.05a.71.71,0,0,1-.67.73h-.06a.7.7,0,0,1-.73-.67v-.19a.71.71,0,0,1,.68-.73h0a.69.69,0,0,1,.73.67Z" style="fill:#dbdbdb"></path><path d="M233.55,216.72v-.25a.91.91,0,0,0-.95-.87h-.07a.92.92,0,0,0-.88,1v.25a.92.92,0,0,0,.95.88h.07A.91.91,0,0,0,233.55,216.72Zm-.17,0a.71.71,0,0,1-.67.73h-.06a.7.7,0,0,1-.73-.67v-.19a.71.71,0,0,1,.68-.73h0a.69.69,0,0,1,.73.67Z" style="fill:#c7c7c7;opacity:0.4"></path><path d="M275.7,226.83a4.65,4.65,0,0,1-.54,2.07.38.38,0,0,1-.52.14.39.39,0,0,1-.14-.52,3.9,3.9,0,0,0,.39-1.18.5.5,0,0,1,0-.12s0-.16,0-.05a1,1,0,0,0,0-.17c0-.05,0-.11,0-.16a.38.38,0,0,1,.37-.39.39.39,0,0,1,.39.38Z" style="fill:#dbdbdb"></path><path d="M274.46,228.74a.35.35,0,0,0,.18.3.38.38,0,0,0,.52-.14,4.65,4.65,0,0,0,.54-2.07.37.37,0,0,0-.15-.3v0a4.6,4.6,0,0,1-.54,2.08.38.38,0,0,1-.52.14Z" style="fill:#c7c7c7;opacity:0.4"></path><path d="M275,230.08a4.55,4.55,0,0,1-.33,2.12.38.38,0,1,1-.69-.32,4.08,4.08,0,0,0,.26-1.21.49.49,0,0,0,0-.12s0-.16,0-.05a.54.54,0,0,0,0-.18v-.16a.37.37,0,0,1,.33-.42.38.38,0,0,1,.42.34Z" style="fill:#dbdbdb"></path><path d="M273.9,232.11a.41.41,0,0,0,.22.28.39.39,0,0,0,.5-.19,4.53,4.53,0,0,0,.33-2.12.38.38,0,0,0-.17-.28v0a4.67,4.67,0,0,1-.34,2.12.38.38,0,0,1-.5.19Z" style="fill:#c7c7c7;opacity:0.4"></path><path d="M274.58,233.45a4.56,4.56,0,0,1,.14,2.14.38.38,0,0,1-.45.29.39.39,0,0,1-.3-.45,4,4,0,0,0,0-1.24.5.5,0,0,1,0-.12s0-.16,0,0a1,1,0,0,0,0-.17s0-.1,0-.15a.38.38,0,1,1,.72-.25Z" style="fill:#dbdbdb"></path><path d="M274,235.66a.34.34,0,0,0,.27.22.38.38,0,0,0,.45-.29,4.56,4.56,0,0,0-.14-2.14.38.38,0,0,0-.24-.24v0a4.57,4.57,0,0,1,.14,2.14.38.38,0,0,1-.45.3Z" style="fill:#c7c7c7;opacity:0.4"></path><path d="M274.87,236.92a4.67,4.67,0,0,1,.32,2.12.38.38,0,1,1-.75-.08,4,4,0,0,0-.12-1.24l0-.12s0-.15,0,0c0-.05,0-.11,0-.16l-.06-.15a.39.39,0,0,1,.19-.51.41.41,0,0,1,.51.19Z" style="fill:#dbdbdb"></path><path d="M274.48,239.18a.41.41,0,0,0,.29.2.38.38,0,0,0,.42-.34,4.67,4.67,0,0,0-.32-2.12.39.39,0,0,0-.26-.21v0a4.68,4.68,0,0,1,.33,2.12.39.39,0,0,1-.42.34Z" style="fill:#c7c7c7;opacity:0.4"></path><path d="M275.17,240.53a4.6,4.6,0,0,1,.11,2.15.4.4,0,0,1-.46.29.41.41,0,0,1-.29-.46,3.68,3.68,0,0,0,0-1.24s0-.08,0-.12,0-.16,0-.05l0-.17c0-.05,0-.11,0-.16a.38.38,0,0,1,.24-.48.39.39,0,0,1,.48.24Z" style="fill:#dbdbdb"></path><path d="M274.56,242.74a.38.38,0,0,0,.26.23.4.4,0,0,0,.46-.29,4.6,4.6,0,0,0-.11-2.15.35.35,0,0,0-.23-.23v0a4.83,4.83,0,0,1,.11,2.14.4.4,0,0,1-.46.29Z" style="fill:#c7c7c7;opacity:0.4"></path><path d="M275.29,244.2a4.69,4.69,0,0,1,0,2.14.38.38,0,1,1-.73-.21,3.93,3.93,0,0,0,.09-1.24.49.49,0,0,0,0-.12s0-.16,0-.05l0-.17,0-.16a.39.39,0,0,1,.27-.46.38.38,0,0,1,.47.27Z" style="fill:#dbdbdb"></path><path d="M274.54,246.36a.34.34,0,0,0,.25.24.38.38,0,0,0,.47-.26,4.69,4.69,0,0,0,0-2.14.35.35,0,0,0-.22-.25v0a4.69,4.69,0,0,1,0,2.14.38.38,0,0,1-.47.26Z" style="fill:#c7c7c7;opacity:0.4"></path><path d="M274.94,247.83a4.76,4.76,0,0,1-.45,2.1.38.38,0,0,1-.51.16.39.39,0,0,1-.17-.51,4.13,4.13,0,0,0,.34-1.2s0-.08,0-.12,0-.16,0,0V248a.43.43,0,0,0,0-.16.4.4,0,0,1,.36-.41.4.4,0,0,1,.41.36Z" style="fill:#dbdbdb"></path><path d="M273.78,249.8a.36.36,0,0,0,.2.29.38.38,0,0,0,.51-.16,4.76,4.76,0,0,0,.45-2.1.39.39,0,0,0-.17-.29v0a4.76,4.76,0,0,1-.45,2.1.38.38,0,0,1-.52.16Z" style="fill:#c7c7c7;opacity:0.4"></path><path d="M273.76,251.36a4.62,4.62,0,0,1-1.05,1.87.38.38,0,0,1-.54-.54,3.9,3.9,0,0,0,.68-1s0-.07,0-.11l0,0a.76.76,0,0,0,.06-.16.88.88,0,0,0,0-.15.39.39,0,0,1,.47-.28.38.38,0,0,1,.27.46Z" style="fill:#dbdbdb"></path><path d="M272.06,252.89a.37.37,0,0,0,.11.34.39.39,0,0,0,.54,0,4.62,4.62,0,0,0,1.05-1.87.34.34,0,0,0-.07-.32v0a4.71,4.71,0,0,1-1.06,1.87.39.39,0,0,1-.54,0Z" style="fill:#c7c7c7;opacity:0.4"></path><path d="M271.69,254.56a4.62,4.62,0,0,1-1.72,1.28.38.38,0,0,1-.49-.22.38.38,0,0,1,.21-.49,4.2,4.2,0,0,0,1.05-.68l.08-.08,0,0,.12-.12.11-.12a.38.38,0,1,1,.6.47Z" style="fill:#dbdbdb"></path><path d="M269.52,255.27a.36.36,0,0,0,0,.35.38.38,0,0,0,.49.22,4.62,4.62,0,0,0,1.72-1.28.35.35,0,0,0,.07-.32h0a4.7,4.7,0,0,1-1.72,1.28.39.39,0,0,1-.5-.22Z" style="fill:#c7c7c7;opacity:0.4"></path><path d="M268.31,256.15a4.56,4.56,0,0,1-2.14-.11.38.38,0,0,1-.24-.48.38.38,0,0,1,.48-.24,4.26,4.26,0,0,0,1.24.14h.17l.17,0,.16,0a.37.37,0,0,1,.45.29.38.38,0,0,1-.29.45Z" style="fill:#dbdbdb"></path><path d="M266.19,255.31a.38.38,0,0,0,0,.73,4.56,4.56,0,0,0,2.14.11.36.36,0,0,0,.26-.2h0a4.56,4.56,0,0,1-2.14-.11.39.39,0,0,1-.24-.49Z" style="fill:#c7c7c7;opacity:0.4"></path><path d="M264.78,255.16a4.67,4.67,0,0,1-1.74-1.27.38.38,0,0,1,.6-.47,3.9,3.9,0,0,0,1,.79l.1.06s.14.08,0,0l.16.08.15.06a.38.38,0,0,1-.27.72Z" style="fill:#dbdbdb"></path><path d="M263.45,253.29a.41.41,0,0,0-.35.07.39.39,0,0,0-.06.53,4.67,4.67,0,0,0,1.74,1.27.39.39,0,0,0,.32,0h0a4.75,4.75,0,0,1-1.74-1.26.4.4,0,0,1,.06-.54Z" style="fill:#c7c7c7;opacity:0.4"></path><path d="M262,252.69a4.56,4.56,0,0,1-1.15-1.81.39.39,0,0,1,.25-.48.38.38,0,0,1,.47.26,4.15,4.15,0,0,0,.61,1.08l.07.1s.11.12,0,0l.12.13a1.14,1.14,0,0,0,.11.11.38.38,0,0,1,0,.54.4.4,0,0,1-.54,0Z" style="fill:#dbdbdb"></path><path d="M261.45,250.47a.37.37,0,0,0-.34-.07.39.39,0,0,0-.25.48,4.56,4.56,0,0,0,1.15,1.81.38.38,0,0,0,.32.09h0a4.67,4.67,0,0,1-1.15-1.81.39.39,0,0,1,.25-.48Z" style="fill:#c7c7c7;opacity:0.4"></path><path d="M260.34,249.4a4.66,4.66,0,0,1-.82-2,.37.37,0,0,1,.33-.42.38.38,0,0,1,.42.33,4,4,0,0,0,.41,1.18l.06.1s.08.14,0,.05l.09.14.09.14a.37.37,0,0,1-.07.53.38.38,0,0,1-.53-.06Z" style="fill:#dbdbdb"></path><path d="M260.18,247.12a.35.35,0,0,0-.33-.13.37.37,0,0,0-.33.42,4.66,4.66,0,0,0,.82,2,.37.37,0,0,0,.3.14h0a4.84,4.84,0,0,1-.82-2,.38.38,0,0,1,.33-.42Z" style="fill:#c7c7c7;opacity:0.4"></path><path d="M259.1,246.05a4.58,4.58,0,0,1-.71-2,.38.38,0,1,1,.76-.05,4.31,4.31,0,0,0,.34,1.2.47.47,0,0,0,.05.1s.07.15,0,.05l.08.15c0,.05.05.1.08.14a.39.39,0,0,1-.09.53.38.38,0,0,1-.53-.1Z" style="fill:#dbdbdb"></path><path d="M259.07,243.77a.36.36,0,0,0-.32-.15.39.39,0,0,0-.36.41,4.58,4.58,0,0,0,.71,2,.31.31,0,0,0,.28.16h0a4.61,4.61,0,0,1-.7-2,.38.38,0,0,1,.35-.4Z" style="fill:#c7c7c7;opacity:0.4"></path><path d="M258,242.7a4.51,4.51,0,0,1-.93-1.93.38.38,0,0,1,.3-.44.39.39,0,0,1,.45.3,3.88,3.88,0,0,0,.47,1.16l.06.1s.09.13,0,0l.09.14.1.13a.39.39,0,0,1,0,.54.38.38,0,0,1-.54,0Z" style="fill:#dbdbdb"></path><path d="M257.75,240.43a.38.38,0,0,0-.64.34,4.51,4.51,0,0,0,.93,1.93.34.34,0,0,0,.3.13h0a4.6,4.6,0,0,1-.93-1.94.38.38,0,0,1,.3-.44Z" style="fill:#c7c7c7;opacity:0.4"></path><path d="M256.48,239.67a4.5,4.5,0,0,1-1.26-1.73.38.38,0,0,1,.71-.27,3.9,3.9,0,0,0,.67,1.05l.08.09s.11.12,0,0l.12.12.12.11a.38.38,0,1,1-.47.59Z" style="fill:#dbdbdb"></path><path d="M255.79,237.49a.36.36,0,0,0-.35,0,.38.38,0,0,0-.22.49,4.5,4.5,0,0,0,1.26,1.73.34.34,0,0,0,.32.07h0a4.63,4.63,0,0,1-1.27-1.73.39.39,0,0,1,.23-.49Z" style="fill:#c7c7c7;opacity:0.4"></path><path d="M254.41,236.8a4.7,4.7,0,0,1-1.58-1.46.39.39,0,0,1,.13-.52.37.37,0,0,1,.52.12,4.07,4.07,0,0,0,.86.9l.1.07,0,0,.14.1.14.08a.37.37,0,0,1,.16.51.38.38,0,0,1-.51.17Z" style="fill:#dbdbdb"></path><path d="M253.31,234.79a.37.37,0,0,0-.35,0,.39.39,0,0,0-.13.52,4.7,4.7,0,0,0,1.58,1.46.35.35,0,0,0,.33,0h0a4.67,4.67,0,0,1-1.57-1.46.39.39,0,0,1,.12-.53Z" style="fill:#c7c7c7;opacity:0.4"></path><path d="M251.8,234.59a4.7,4.7,0,0,1-1.89-1,.38.38,0,1,1,.53-.55,4.34,4.34,0,0,0,1.05.66l.11,0,.05,0,.16.06.16,0a.4.4,0,0,1,.29.46.39.39,0,0,1-.46.29Z" style="fill:#dbdbdb"></path><path d="M250.23,232.92a.36.36,0,0,0-.33.11.39.39,0,0,0,0,.54,4.7,4.7,0,0,0,1.89,1,.37.37,0,0,0,.32-.08h0a4.7,4.7,0,0,1-1.89-1,.39.39,0,0,1,0-.54Z" style="fill:#c7c7c7;opacity:0.4"></path><path d="M248.55,232.87a4.7,4.7,0,0,1-1.89-1,.38.38,0,0,1,0-.54.37.37,0,0,1,.53,0,4.08,4.08,0,0,0,1.06.65l.11.05.05,0,.16.06.16,0a.38.38,0,0,1-.17.75Z" style="fill:#dbdbdb"></path><path d="M247,231.2a.35.35,0,0,0-.33.11.38.38,0,0,0,0,.54,4.73,4.73,0,0,0,1.88,1,.36.36,0,0,0,.32-.08h0a4.7,4.7,0,0,1-1.89-1,.39.39,0,0,1,0-.54Z" style="fill:#c7c7c7;opacity:0.4"></path><path d="M245.51,231.21a4.59,4.59,0,0,1-1.89-1,.38.38,0,0,1,0-.54.39.39,0,0,1,.53,0,3.86,3.86,0,0,0,1.06.66l.11,0s.15.05.05,0l.16,0,.16.05a.39.39,0,0,1,.28.46.38.38,0,0,1-.45.28Z" style="fill:#dbdbdb"></path><path d="M243.94,229.55a.37.37,0,0,0-.33.1.38.38,0,0,0,0,.54,4.59,4.59,0,0,0,1.89,1,.37.37,0,0,0,.32-.07h0a4.57,4.57,0,0,1-1.89-1,.39.39,0,0,1,0-.54S243.93,229.55,243.94,229.55Z" style="fill:#c7c7c7;opacity:0.4"></path><path d="M242.46,229.55a4.76,4.76,0,0,1-1.84-1.11.39.39,0,0,1,.56-.53,3.88,3.88,0,0,0,1,.71l.11.06s.15.06,0,0l.16.06.16.06a.38.38,0,0,1,.26.47.39.39,0,0,1-.47.26Z" style="fill:#dbdbdb"></path><path d="M241,227.81a.36.36,0,0,0-.34.09.39.39,0,0,0,0,.54,4.76,4.76,0,0,0,1.84,1.11.34.34,0,0,0,.32-.06h0a4.56,4.56,0,0,1-1.83-1.12.38.38,0,0,1,0-.54Z" style="fill:#c7c7c7;opacity:0.4"></path><path d="M239.41,227.71a4.65,4.65,0,0,1-1.75-1.25.39.39,0,0,1,.06-.54.38.38,0,0,1,.53.06,4.1,4.1,0,0,0,1,.78l.1.06.05,0,.15.08.15.06a.39.39,0,0,1,.23.49.39.39,0,0,1-.49.23Z" style="fill:#dbdbdb"></path><path d="M238.07,225.85a.4.4,0,0,0-.35.07.39.39,0,0,0-.06.54,4.76,4.76,0,0,0,1.75,1.25.36.36,0,0,0,.32,0h0a4.65,4.65,0,0,1-1.75-1.25.39.39,0,0,1,.06-.54Z" style="fill:#c7c7c7;opacity:0.4"></path><path d="M236.6,225.49a4.57,4.57,0,0,1-1.53-1.5.38.38,0,0,1,.66-.38,3.81,3.81,0,0,0,.83.92l.09.08,0,0,.14.1.14.09a.38.38,0,1,1-.37.66Z" style="fill:#dbdbdb"></path><path d="M235.56,223.46a.34.34,0,0,0-.35,0,.38.38,0,0,0-.14.52,4.57,4.57,0,0,0,1.53,1.5.33.33,0,0,0,.33,0h0a4.67,4.67,0,0,1-1.53-1.5.39.39,0,0,1,.14-.52Z" style="fill:#c7c7c7;opacity:0.4"></path><path d="M234.22,222.63a4.62,4.62,0,0,1-1.1-1.84.38.38,0,1,1,.73-.2,4.15,4.15,0,0,0,.58,1.1l.07.1s.1.12,0,0l.11.13.11.12a.38.38,0,0,1-.53.55Z" style="fill:#dbdbdb"></path><path d="M233.73,220.4a.4.4,0,0,0-.35-.08.38.38,0,0,0-.26.47,4.62,4.62,0,0,0,1.1,1.84.39.39,0,0,0,.32.1h0a4.69,4.69,0,0,1-1.1-1.84.38.38,0,0,1,.26-.47Z" style="fill:#c7c7c7;opacity:0.4"></path><path d="M232.69,219.47a4.49,4.49,0,0,1-.42-2.1.38.38,0,0,1,.4-.36.4.4,0,0,1,.36.41,4,4,0,0,0,.16,1.23.56.56,0,0,1,0,.12s.05.15,0,0l.06.16a1,1,0,0,0,.07.15.38.38,0,1,1-.68.34Z" style="fill:#dbdbdb"></path><path d="M233,217.2a.39.39,0,0,0-.3-.19.38.38,0,0,0-.4.36,4.49,4.49,0,0,0,.42,2.1.35.35,0,0,0,.26.2v0a4.73,4.73,0,0,1-.42-2.1.38.38,0,0,1,.41-.35Z" style="fill:#c7c7c7;opacity:0.4"></path><path d="M232.32,216a4.51,4.51,0,0,1-.42-2.11.4.4,0,0,1,.41-.35.39.39,0,0,1,.35.41,4,4,0,0,0,.17,1.23l0,.12s0,.15,0,.05l.06.16.06.15a.38.38,0,0,1-.17.51.39.39,0,0,1-.51-.17Z" style="fill:#dbdbdb"></path><path d="M232.6,213.72a.37.37,0,0,0-.29-.19.4.4,0,0,0-.41.35,4.51,4.51,0,0,0,.42,2.11.35.35,0,0,0,.26.2v0a4.76,4.76,0,0,1-.42-2.1.4.4,0,0,1,.41-.36Z" style="fill:#c7c7c7;opacity:0.4"></path><path d="M267.83,213.91c-.7.37-10.11,37.94-11.51,38.41s-39.76-4-40.87-4.59,4-33.86,4-33.86Z" style="fill:#455a64"></path><path d="M278.29,275.06c.39,3.4-10.58,13.72-22-22.74l-4.21-.19s8.17,31.63,21.44,32.21c4.52.2,6.22-4.43,6.22-4.43Z" style="fill:#455a64"></path><path d="M219.41,248.41l-4-.68s-5.35,26.8-8.54,22.63l-1.52,4.39s1.13,4,4.83.95C215.29,271.58,219.41,248.41,219.41,248.41Z" style="fill:#455a64"></path><path d="M251.53,192.53a38.67,38.67,0,0,0,8.35,2.92c-5.48-5.82-8.27-21.12-7.31-19.07,4.65,9.82,13.69,19.69,16.28,19.69h0a29.28,29.28,0,0,0,16.87-7.71s0,0,0,0c-6.83-6.44-10.08-21.91-9.52-21.05,6,9.22,15.11,13.35,16.46,13h0c3.92-5.89,5.5-11.25,4.67-11.57-6-2.36-12.4-10.45-18.53-19.15h0c-6-8.58-10-17.13-17.47-24.33-6.79-6.59-17.23-5.79-22.07-.56C226.6,138.43,247.76,190.74,251.53,192.53Z" style="fill:#263238"></path><path d="M240.63,123.7a12.7,12.7,0,0,0-2.88,3.37,15.69,15.69,0,0,0-1.61,4.12,38.48,38.48,0,0,0-1,8.83c0,3,.07,5.95.31,8.93a71.24,71.24,0,0,0,1.14,8.84,110,110,0,0,0,4.8,17.19q1.5,4.22,3.27,8.33t3.75,8.15a114.15,114.15,0,0,1-7.74-16.21A101.58,101.58,0,0,1,235.65,158a71.11,71.11,0,0,1-1.07-9,82.06,82.06,0,0,1-.17-9,39.26,39.26,0,0,1,1.26-8.94,16.25,16.25,0,0,1,1.85-4.12A12,12,0,0,1,240.63,123.7Z" style="fill:#263238"></path><path d="M255.82,121.69a22.57,22.57,0,0,1,6.77,4.13,42.81,42.81,0,0,1,5.46,5.8c3.33,4.15,6.13,8.66,9.1,13a95.07,95.07,0,0,0,9.64,12.47,35.77,35.77,0,0,0,5.87,5.19,20.35,20.35,0,0,0,3.43,1.87,7.54,7.54,0,0,0,3.83.63,7.28,7.28,0,0,1-3.94-.33,17.37,17.37,0,0,1-3.62-1.71,33.42,33.42,0,0,1-6.19-5,81.16,81.16,0,0,1-9.81-12.54c-2.93-4.41-5.72-8.9-8.85-13.12S260.69,123.88,255.82,121.69Z" style="fill:#263238"></path><path d="M240,170.06c-8.37.86-42.45-3.82-49.59-14.7-7.27-11.09-3.32-45.31-2.95-48.92.25-2.36,26.87-1.07,26.57,2.56-.81,9.74-3.48,33.07-.19,35.55,6.92,5.23,14.32,8.2,26.08,14.79C248.13,163.94,249.25,169.12,240,170.06Z" style="fill:#f7a9a0"></path><path d="M189.64,86.25c-2.9,8.73-2.74,20.06-1.6,23.13s22.64,4,24.81,1.48,11-22,9.32-27.62S191.53,80.58,189.64,86.25Z" style="fill:#f7a9a0"></path><path d="M216.49,82.18s.39,6.77.39,9c0,1.92-.28,5.92-3.53,6.83s-3.87-3.91-3.93-4.25c0,.31-.42,5.74-3.78,6.32s-3.41-4.33-3.4-4.65c-.07.17,1.67-11.44-.79-12.8-2.78-1.54-12.15,5.65-12.23,5.66s5.08-26,9.08-26.45c4.77-.58,1.8,16.58,1.8,16.58s1.48-3.84,4.11-4.38c1.35-.27,3,1.65,3,1.65a4,4,0,0,1,3-2.84c1.89-.27,3.24,1.69,3.24,1.69s-2.7-17.75,3.27-16.24c3.65.93,4.73,19.94,5.43,24.91C222.17,83.24,218.89,80.39,216.49,82.18Z" style="fill:#f7a9a0"></path><path d="M213.73,74.85s.06-.08.08,0a28.32,28.32,0,0,1,3.13,16.6c0,.18-.33.22-.34,0A57.77,57.77,0,0,0,213.73,74.85Z" style="fill:#263238"></path><path d="M207.21,75.63c0-.06.08-.09.11,0a26.61,26.61,0,0,1,2.29,18.32c-.06.22-.32.35-.28.1C210.12,89.78,208.93,80.64,207.21,75.63Z" style="fill:#263238"></path><path d="M201.76,95.43c1.35-6.06.84-8.59-.77-14.53,0-.08.09-.1.12,0a14.22,14.22,0,0,1,2.25,6.3A15.22,15.22,0,0,1,202,95.48C201.92,95.58,201.73,95.56,201.76,95.43Z" style="fill:#263238"></path><path d="M216.88,91.21a15.76,15.76,0,0,1-.49,3.41,6.41,6.41,0,0,1-1.63,3.12,2.58,2.58,0,0,1-1.74.7,3.54,3.54,0,0,1-3.31-2.07c.15-.46.27-1,.38-1.44l-.88,0a4.89,4.89,0,0,0,.5,1.48,10.54,10.54,0,0,1-.87,2,4.67,4.67,0,0,1-3,2.37,3.44,3.44,0,0,1-2-.18,3.11,3.11,0,0,1-1.48-1.43,5.94,5.94,0,0,1-.55-1.77,10.12,10.12,0,0,0,.88-1.7l-1-.22a.42.42,0,0,0,0-.1l1.06-2.78-.11,3a6.3,6.3,0,0,0,.57,3.13,2.1,2.1,0,0,0,2.39,1.11A3.72,3.72,0,0,0,208,97.86a10.35,10.35,0,0,0,1.18-3.09l.53-2.46.35,2.48a3.65,3.65,0,0,0,1.48,2.58,2.91,2.91,0,0,0,1.45.45,2.09,2.09,0,0,0,1.39-.5,6.18,6.18,0,0,0,1.69-2.79A19.55,19.55,0,0,0,216.88,91.21Z" style="fill:#263238"></path><path d="M202.7,95.64a10.12,10.12,0,0,1-.88,1.7,10.29,10.29,0,0,1-.08-1.92Z" style="fill:#263238"></path><path d="M210.09,94.93c-.11.49-.23,1-.38,1.44a4.89,4.89,0,0,1-.5-1.48Z" style="fill:#263238"></path><path d="M214.41,107.88s17.35-17.21,7.3-20.7c-3-1-16.49-1.73-16.68,1-.24,3.5,5.34,4.84,9,5.13,0,0-6.73,5-4.63,10.75A6.06,6.06,0,0,0,214.41,107.88Z" style="fill:#f7a9a0"></path><path d="M222.53,87.52A12.89,12.89,0,0,0,219,86.4a29,29,0,0,0-3.72-.44,43.68,43.68,0,0,0-7.49.15,7.15,7.15,0,0,0-1.93.5,2.5,2.5,0,0,0-.92.66,1.68,1.68,0,0,0-.34.52,2,2,0,0,0-.14.61,3.17,3.17,0,0,0,.65,2.08,5.74,5.74,0,0,0,1.53,1.35,11.12,11.12,0,0,0,3.61,1.37,25.11,25.11,0,0,0,3.74.52l-.22-.78a14.38,14.38,0,0,0-2.05,2,13.92,13.92,0,0,0-1.63,2.33,9.91,9.91,0,0,0-1,2.66,7.38,7.38,0,0,0,0,2.81,8.29,8.29,0,0,1,.33-2.73,9.9,9.9,0,0,1,1.16-2.46,13.43,13.43,0,0,1,1.68-2.14,14.14,14.14,0,0,1,2-1.77l.91-.64L214,92.86a28.62,28.62,0,0,1-3.59-.61A11,11,0,0,1,207.17,91a3.09,3.09,0,0,1-1.7-2.48c0-.84,1.31-1.21,2.45-1.4s2.41-.27,3.64-.35,2.46-.13,3.68-.12A23.88,23.88,0,0,1,222.53,87.52Z" style="fill:#263238"></path><path d="M215.47,169.94l5.38-22.19s16.83,9.69,22.29,13.29,7.82,10.28-7.39,10.39S215.47,169.94,215.47,169.94Z" style="fill:#E60003"></path><path d="M224.34,151.46a35.59,35.59,0,0,1-.86,4.35c-.33,1.43-.69,2.86-1,4.29s-.73,2.88-1.13,4.31-.9,2.9-1.35,4.36c0,.08-.17,0-.15,0,.3-1.44.54-2.9.87-4.34s.7-2.86,1.06-4.29.73-2.88,1.13-4.31a36.64,36.64,0,0,1,1.35-4.36A.07.07,0,0,1,224.34,151.46Z" style="fill:#263238"></path><path d="M247.26,167.26c-.42,2.26-3.57,4.11-11.51,4.17-15.21.1-20.28-1.49-20.28-1.49l2.22-9.14Z" style="opacity:0.1"></path><path d="M219.45,213.91l50.45,0s-4.77-34.86-14.24-49.08c-4.3-6.47-9.56-6.47-14.5-3.59-1.24.71-16.5,14.48-18.62,20.23-1.88,5.08,1.54,12.3,1.54,12.3Z" style="fill:#f7a9a0"></path><path d="M231,207a1.83,1.83,0,0,1,1.15,1.12,3.14,3.14,0,0,1,.14,1.67,1.15,1.15,0,0,1-.19.45.68.68,0,0,1-.49.28.65.65,0,0,1-.54-.21.94.94,0,0,1-.19-.44,1.73,1.73,0,0,1,.47-1.54,2,2,0,0,0-.11,1.45c.09.22.2.32.32.28s.2-.15.25-.38a3.79,3.79,0,0,0-.06-1.42A2.24,2.24,0,0,0,231,207Z" style="fill:#263238"></path><path d="M220.53,203.82l50,1.88s-5.37-26.69-14.84-40.91c-4.3-6.47-9.56-6.47-14.5-3.59-1.24.71-16.5,14.48-18.62,20.23-1.88,5.08,1.54,12.3,1.54,12.3Z" style="fill:#E60003"></path><path d="M249.27,159.63l-3.84-.09A8.3,8.3,0,0,1,249.27,159.63Zm4,2.3-12.66-.31q-.45.34-1.14,1l14.78.36A11.81,11.81,0,0,0,253.27,161.93Zm2.64,3.24-18.82-.46-1,1,20.5.5C256.34,165.84,256.13,165.5,255.91,165.17Zm1.93,3.24-24-.59c-.33.31-.66.64-1,1l25.57.63C258.21,169.07,258,168.74,257.84,168.41Zm1.67,3.22-28.81-.7-.92,1,30.21.74Zm1.48,3.22L227.82,174c-.3.32-.58.65-.86,1l34.46.84C261.28,175.52,261.14,175.18,261,174.85Zm1.34,3.22-37.13-.91c-.27.33-.51.66-.74,1l38.26.94Zm1.23,3.22-40.5-1a9.05,9.05,0,0,0-.45,1l41.31,1Zm1.13,3.21-42.62-1.05a8.26,8.26,0,0,0-.08,1l43,1.06C264.92,185.17,264.8,184.83,264.69,184.5Zm1.06,3.21-43.67-1.07c0,.34.08.66.14,1l43.84,1.08Zm1,3.21-44-1.08c.09.35.19.69.29,1l44,1.08C266.93,191.59,266.83,191.26,266.73,190.92Zm1.2,4.2c-.09-.32-.18-.65-.28-1l-43.87-1.08c.18.43.3.68.3.68l-.11.32Zm.59,2.22-45.32-1.12-.34,1,45.92,1.13C268.69,198,268.61,197.68,268.52,197.34Zm.81,3.2-47.24-1.16-.34,1,47.81,1.17Zm.75,3.2-49.1-1.2-.34,1,49.66,1.22C270.24,204.47,270.16,204.13,270.08,203.74Z" style="opacity:0.1"></path><path d="M240.87,193.41a44.62,44.62,0,0,0-6.84-.11c-1.13.08-2.25.21-3.37.36-.56.08-1.12.14-1.69.2a7,7,0,0,1-1.77,0s-.06.07,0,.08a11.82,11.82,0,0,0,1.65.27,12.67,12.67,0,0,0,1.63,0c1.15-.07,2.29-.2,3.44-.28,2.32-.17,4.63-.33,7-.33C241,193.6,241,193.42,240.87,193.41Z" style="fill:#263238"></path><path d="M246,196.4a49.28,49.28,0,0,0-5.5-1.28c-.93-.16-1.86-.26-2.8-.34l-1.35-.09c-.49,0-1,0-1.48,0,0,0-.07.08,0,.08.47.05.93.17,1.39.24l1.39.22,2.78.44c1.86.27,3.71.56,5.56.9C246.11,196.57,246.13,196.42,246,196.4Z" style="fill:#263238"></path><path d="M255.59,161.84C273,165.4,296.66,174,304,179.92c5.15,4.14,15.57,31.06,17.23,39,.71,3.43-24.57,13.29-26.29,10-2.07-4-10.8-34.75-12-35s-20.14-12.27-31.77-21.7C238.48,161.89,248.78,160.44,255.59,161.84Z" style="fill:#f7a9a0"></path><path d="M266.54,185.69l11.21-19.89s-18.92-4.4-25.36-5.5-12.74,2.18-1.69,12.64S266.54,185.69,266.54,185.69Z" style="fill:#E60003"></path><path d="M267.88,183.32a21.07,21.07,0,0,0-1.31,2.29c-1.32-1-2.55-2.11-3.82-3.14s-2.64-2.14-4-3.2c-2.66-2.1-5.27-4.27-8-6.3,0,0-.12,0-.08.07a67.51,67.51,0,0,0,5.46,5.11c-.9-.53-1.78-1.1-2.64-1.69-.06-.05-.13,0-.07.1a16.08,16.08,0,0,0,3.5,2.25l1.24,1c1.31,1.07,2.67,2.1,4.05,3.09s3,2.12,4.41,3.14a17.3,17.3,0,0,0,1.34-2.7C268,183.3,267.92,183.27,267.88,183.32Z" style="fill:#263238"></path><path d="M272.66,166.13a33.8,33.8,0,0,0-2.33,3.77c-.74,1.27-1.45,2.56-2.16,3.85s-1.43,2.6-2.12,3.92-1.32,2.74-2,4.11c0,.07.09.15.14.07.77-1.25,1.58-2.49,2.32-3.77s1.45-2.56,2.16-3.85,1.43-2.61,2.11-3.92a37,37,0,0,0,2-4.11A.07.07,0,0,0,272.66,166.13Z" style="fill:#263238"></path><path d="M286.7,254a4.41,4.41,0,0,1-1.29-.16c-1.88-.59-3.67-2.13-5.74-3.91-4.84-4.16-10.87-9.34-22.13-6.12-1,.27-2,.58-3,.9-9.88,3-23.42,7-27.24-4.56-1.63-5,.45-10,2.45-14.89,1.32-3.21,2.68-6.54,3-9.81.25-2.72-.65-7-1.61-11.48-1.89-8.94-4-19.08.48-24.47,1.6-1.92,5.61-3.62,9.86-5.41,4.46-1.89,9.07-3.84,10.39-6,2.53-4.08,2.1-17.25,2.09-17.38l.5,0c0,.55.44,13.46-2.17,17.66-1.4,2.26-6.09,4.24-10.62,6.16-4,1.69-8.14,3.44-9.67,5.27-4.35,5.21-2.23,15.22-.37,24,1,4.74,1.87,8.84,1.62,11.63-.31,3.34-1.69,6.7-3,9.95-2.06,5-4,9.76-2.43,14.54,3.66,11.14,16.93,7.15,26.62,4.24,1.06-.32,2.08-.63,3.05-.9,11.51-3.29,17.91,2.21,22.58,6.22,2,1.75,3.79,3.26,5.57,3.81,3.94,1.22,20.3-5.79,20.47-5.86l.2.46C305.6,248.24,292.14,254,286.7,254Z" style="fill:#263238"></path><path d="M231.64,180.1l-.5-.08c.48-2.87-1.25-8.29-2.78-13.07a56.92,56.92,0,0,1-2.34-8.61c-.71-5.42,1.75-18,1.85-18.51l.49.09c0,.13-2.54,13-1.85,18.36a58,58,0,0,0,2.32,8.52C230.46,171.87,232.13,177.12,231.64,180.1Z" style="fill:#263238"></path><path d="M330.3,229.52l-33.81,10.25c-1,.21-1.63,1-1.36,1.77l4.81,13.73a2,2,0,0,0,2.34,1L336.08,246c1-.22,1.64-1,1.37-1.78l-4.81-13.72A2,2,0,0,0,330.3,229.52Z" style="fill:#37474f"></path><path d="M330.88,231.14l-33.8,10.25c-1,.21-1.63,1-1.36,1.77l4.81,13.73a2,2,0,0,0,2.34,1l33.8-10.25c1-.22,1.63-1,1.37-1.78l-4.82-13.72A2,2,0,0,0,330.88,231.14Z" style="fill:#455a64"></path><path d="M330.77,235.67c-.77.4-1.56.19-1.77-.46a1.75,1.75,0,0,1,1-1.9c.77-.4,1.56-.19,1.76.46A1.74,1.74,0,0,1,330.77,235.67Z" style="fill:#263238"></path><rect x="290.88" y="250.73" width="7.65" height="2.19" transform="translate(-68.44 116.2) rotate(-20.03)" style="fill:#E60003"></rect><path d="M307.12,262.57a4.35,4.35,0,0,0,4.08-2.83,6.51,6.51,0,0,0,4.26,1.08c2.63-.39,3.18-4.68,3.18-4.68a7.94,7.94,0,0,0,4.67.43c2.48-.62,3.66-4.88,3.66-4.88a7,7,0,0,0,4.34-2.21c2.9-3.42.82-9.94-.46-14.1s-8.81-14.77-10-16.93l-26.78,8s.44,20.29,2.64,25C298.52,255.35,303.72,262.43,307.12,262.57Z" style="fill:#f7a9a0"></path><path d="M311.08,259.73c-3-3.72-4.69-8.11-6.65-12.4a.08.08,0,1,1,.15-.07c1.9,4.29,4.63,8.15,6.69,12.35A.11.11,0,0,1,311.08,259.73Z" style="fill:#263238"></path><path d="M318.55,256.2a12.76,12.76,0,0,1-1.41-2.93c-.42-1.07-.83-2.15-1.22-3.23-.78-2.16-1.51-4.35-2.18-6.55,0-.1.11-.17.15-.07q1.17,3.24,2.47,6.43c.44,1.06.88,2.12,1.33,3.17a14.81,14.81,0,0,1,1.15,3A.17.17,0,0,1,318.55,256.2Z" style="fill:#263238"></path><path d="M326.93,251.6a8.48,8.48,0,0,1-1.12-2.7l-1-3c-.7-2-1.39-4-2.15-5.92a.08.08,0,1,1,.15-.06c.78,2,1.59,3.95,2.36,5.94.37,1,.75,2,1.11,2.94a8.07,8.07,0,0,1,.77,2.75A.06.06,0,0,1,326.93,251.6Z" style="fill:#263238"></path><path d="M238.2,138.57c-.84,3.74-4.17,6.17-7.45,5.43s-5.26-4.36-4.42-8.1,4.18-6.16,7.46-5.43S239,134.83,238.2,138.57Z" style="fill:#455a64"></path><path d="M240.07,139.24c-.93,4.15-4.64,6.86-8.29,6s-5.85-4.85-4.91-9,4.64-6.86,8.29-6S241,135.08,240.07,139.24Z" style="fill:#c7c7c7"></path><path d="M251.25,161.54c-.38,1-6.08,6.62-10.55,5.71-1.46-.3-.18-8.33-.18-8.33l0-.61-.57-8.59L250.64,145l1.53-.61s0,2.36,0,5.3c0,.14,0,.28,0,.42s0,.33,0,.48c0,.44,0,.89,0,1.34s0,.67,0,1l0,1.07A55,55,0,0,1,251.25,161.54Z" style="fill:#f7a9a0"></path><path d="M252.15,149.66a17.3,17.3,0,0,1-11.67,8.65l-.57-8.59L250.64,145l1.53-.61S252.17,146.72,252.15,149.66Z" style="fill:#263238"></path><path d="M230.19,132.36c-6.64,13.58.75,19.09,3.68,20.52,2.66,1.29,11.88,5.36,19.88-7.46s3.78-20.19-2.14-23.48S236.82,118.78,230.19,132.36Z" style="fill:#f7a9a0"></path><path d="M234.61,131.83a8.73,8.73,0,0,0,1,.19,1.76,1.76,0,0,0,1.09,0,.55.55,0,0,0,.24-.61,1.33,1.33,0,0,0-1.09-.79,1.94,1.94,0,0,0-1.4.17A.57.57,0,0,0,234.61,131.83Z" style="fill:#263238"></path><path d="M244,135.78a10.06,10.06,0,0,1-.86-.59c-.33-.23-.62-.38-.77-.77a.53.53,0,0,1,.25-.6,1.34,1.34,0,0,1,1.34.21,1.93,1.93,0,0,1,.87,1.11A.57.57,0,0,1,244,135.78Z" style="fill:#263238"></path><path d="M235.33,136s-.09,0-.11.05c-.34,1-.89,2-1.88,2,0,0-.05,0,0,.05C234.44,138.35,235.16,136.94,235.33,136Z" style="fill:#263238"></path><path d="M234.86,134.63c-1.5-.71-2.82,2.34-1.43,3S236.11,135.23,234.86,134.63Z" style="fill:#263238"></path><path d="M234.13,134.56c-.31.06-.67.25-1,.14s-.45-.55-.52-1c0,0,0,0-.06,0-.27.58-.34,1.27.17,1.62s1.06,0,1.45-.54C234.27,134.74,234.26,134.54,234.13,134.56Z" style="fill:#263238"></path><path d="M237.09,146a1.62,1.62,0,0,1-1,.29,2.8,2.8,0,0,1-1-.61,0,0,0,0,0-.06,0,1.4,1.4,0,0,0,1.06.95,1.11,1.11,0,0,0,1.06-.6C237.2,146,237.13,146,237.09,146Z" style="fill:#263238"></path><path d="M234,142.93a4.18,4.18,0,0,0,.94,1.9,1.9,1.9,0,0,0,1,.56c.84.17,1.19-.51,1.33-1.16a4.69,4.69,0,0,0,.1-1.06A5.46,5.46,0,0,1,234,142.93Z" style="fill:#263238"></path><path d="M235,144.83a1.9,1.9,0,0,0,1,.56c.84.17,1.19-.51,1.33-1.16A1.94,1.94,0,0,0,235,144.83Z" style="fill:#ff97b8"></path><path d="M234.51,140.92s-.78,1.34-1,2c0,.06.12.16.35.27h0a3.46,3.46,0,0,0,3.59.07.07.07,0,0,0-.06-.13,5.21,5.21,0,0,1-3.26-.36c0-.2,1.41-2.25,1.31-2.3a6,6,0,0,0-1.67-.28c1.54-2.84,3.52-5.42,5-8.27.05-.11-.09-.2-.16-.12a52.14,52.14,0,0,0-5.77,8.68C232.61,140.86,234.2,140.92,234.51,140.92Z" style="fill:#263238"></path><path d="M243.59,139a3.7,3.7,0,0,0-.77-.45,3.29,3.29,0,0,0-.9-.21,2.65,2.65,0,0,0-1,.1,2.3,2.3,0,0,0-.85.53l-.43.42.6.12a6.12,6.12,0,0,1,1.24.38,2.63,2.63,0,0,1,1.08.78,2,2,0,0,0-.84-1.2,3.68,3.68,0,0,0-1.36-.59l.16.54a2.21,2.21,0,0,1,1.36-.54A6.42,6.42,0,0,1,243.59,139Z" style="fill:#263238"></path><path d="M241.22,140.8a5.41,5.41,0,0,1-1.11-.86c-.07-.09-.35-.45-.31-.52a2.41,2.41,0,0,1,.42-.56,1.71,1.71,0,0,0-.54.5.86.86,0,0,0,.28.72A2.79,2.79,0,0,0,241.22,140.8Z" style="fill:#263238"></path><path d="M252,145.74c-2.72-.73-1-6.92-1-6.92s-8.69-4.4-7.63-14.45a18.44,18.44,0,0,1-11,4s4.37-9.68,13-8.43c0,0,11.1.41,13.43,10.29S253.83,146.22,252,145.74Z" style="fill:#263238"></path><path d="M243.66,123.7a10.52,10.52,0,0,0-.83,4.38,11,11,0,0,0,1,4.4,8.11,8.11,0,0,0,.53,1l.27.5.33.46c.23.3.44.61.68.9l.79.81.4.4.44.35.87.69c.63.41,1.27.79,1.91,1.15-.56-.49-1.16-.92-1.7-1.4l-.8-.76-.39-.37c-.13-.14-.24-.28-.36-.42s-.46-.55-.7-.82-.41-.6-.61-.89l-.31-.45-.25-.47a8.59,8.59,0,0,1-.48-1,12.39,12.39,0,0,1-1.06-4.16,13.1,13.1,0,0,1,0-2.17A12.49,12.49,0,0,1,243.66,123.7Z" style="fill:#263238"></path><path d="M251.33,150.44a3.11,3.11,0,0,1-.72-.08,2.4,2.4,0,0,1-.67-.24,2,2,0,0,1-.71-.58,2.36,2.36,0,0,1-.38-.61,3.07,3.07,0,0,1-.23-1l2.23-3.47s4.78-3.21,6.35-1.34S254,150.47,251.33,150.44Z" style="fill:#f7a9a0"></path><path d="M255.8,144.65s0,.07,0,.07a6.43,6.43,0,0,0-4.57,2.57,1.41,1.41,0,0,1,2.11.4c0,.05,0,.1-.08.07a1.58,1.58,0,0,0-1.81-.11,7.79,7.79,0,0,0-1.28,1c-.13.12-.37-.06-.25-.21l0,0C250.71,146.3,253.47,144,255.8,144.65Z" style="fill:#263238"></path><path d="M251.36,149.77a.7.7,0,1,1-1.18-.75.7.7,0,0,1,1.18.75Z" style="fill:#fff"></path><path d="M253.08,149.3a.49.49,0,1,1-.83-.53.49.49,0,0,1,.83.53Z" style="fill:#fff"></path><path d="M256.3,123.81c2.13,1.7,8.74.94,11.28-2.48,3.49-4.71-2.45-12.78-8.46-10S254.65,122.5,256.3,123.81Z" style="fill:#263238"></path><path d="M266.37,112.9a11.79,11.79,0,0,1,2.62,5,4.55,4.55,0,0,1-.21,2.64,4.62,4.62,0,0,1-1.67,2,10.65,10.65,0,0,1-2.49,1.28,12.13,12.13,0,0,1-2.72.72,9.63,9.63,0,0,1-5.6-.81,8.39,8.39,0,0,0,5.67,1.56,11.91,11.91,0,0,0,3-.62,10.65,10.65,0,0,0,2.74-1.37,5.41,5.41,0,0,0,1.94-2.47,5.05,5.05,0,0,0,.09-3.12A9.76,9.76,0,0,0,266.37,112.9Z" style="fill:#263238"></path><polygon points="253.48 136.03 254.21 137.5 255.84 137.74 254.66 138.88 254.94 140.5 253.48 139.74 252.03 140.5 252.31 138.88 251.13 137.74 252.76 137.5 253.48 136.03" style="fill:#E60003"></polygon><polygon points="252.05 131.75 252.35 133.05 253.6 133.54 252.46 134.23 252.38 135.57 251.36 134.69 250.07 135.03 250.59 133.8 249.86 132.67 251.2 132.78 252.05 131.75" style="fill:#E60003"></polygon><path d="M257.09,141.07s2.73-7.92,1.58-13c-1.28-5.67-9.4-9.44-14-8.13,0,0,6.94-.79,10.73,7.62,1.59,3.54-1.06,13-1.06,13Z" style="fill:#c7c7c7"></path><path d="M248.42,143.09c-1.16,4.1.81,8.25,4.41,9.27s7.45-1.48,8.61-5.58-.81-8.25-4.41-9.27S249.58,139,248.42,143.09Z" style="fill:#c7c7c7"></path><path d="M250.38,143.4c-1,3.68.73,7.41,4,8.32s6.7-1.32,7.74-5-.73-7.41-4-8.33S251.43,139.71,250.38,143.4Z" style="fill:#455a64"></path><path d="M253.55,144.36a3.77,3.77,0,1,0,4.76-3.08A4,4,0,0,0,253.55,144.36Z" style="fill:#37474f"></path></g></svg>